<svg width="1160" height="374" viewBox="0 0 1160 374" fill="none" xmlns="http://www.w3.org/2000/svg">
<path d="M314 183.536C316.667 185.075 316.667 188.925 314 190.464L296 200.856C293.333 202.396 290 200.472 290 197.392V176.608C290 173.528 293.333 171.604 296 173.144L314 183.536Z" fill="white" fill-opacity="0.1"/>
<path d="M154 103.536C156.667 105.075 156.667 108.925 154 110.464L136 120.856C133.333 122.396 130 120.472 130 117.392V96.6077C130 93.5285 133.333 91.604 136 93.1436L154 103.536Z" fill="white" fill-opacity="0.1"/>
<path d="M154 263.536C156.667 265.075 156.667 268.925 154 270.464L136 280.856C133.333 282.396 130 280.472 130 277.392V256.608C130 253.528 133.333 251.604 136 253.144L154 263.536Z" fill="white" fill-opacity="0.1"/>
<path d="M154 183.536C156.667 185.075 156.667 188.925 154 190.464L136 200.856C133.333 202.396 130 200.472 130 197.392V176.608C130 173.528 133.333 171.604 136 173.144L154 183.536Z" fill="white" fill-opacity="0.1"/>
<path d="M154 143.536C156.667 145.075 156.667 148.925 154 150.464L136 160.856C133.333 162.396 130 160.472 130 157.392V136.608C130 133.528 133.333 131.604 136 133.144L154 143.536Z" fill="white" fill-opacity="0.1"/>
<path d="M154 223.536C156.667 225.075 156.667 228.925 154 230.464L136 240.856C133.333 242.396 130 240.472 130 237.392V216.608C130 213.528 133.333 211.604 136 213.144L154 223.536Z" fill="white" fill-opacity="0.1"/>
<path d="M194 203.536C196.667 205.075 196.667 208.925 194 210.464L176 220.856C173.333 222.396 170 220.472 170 217.392V196.608C170 193.528 173.333 191.604 176 193.144L194 203.536Z" fill="white" fill-opacity="0.1"/>
<path d="M194 123.536C196.667 125.075 196.667 128.925 194 130.464L176 140.856C173.333 142.396 170 140.472 170 137.392V116.608C170 113.528 173.333 111.604 176 113.144L194 123.536Z" fill="white" fill-opacity="0.1"/>
<path d="M194 163.536C196.667 165.075 196.667 168.925 194 170.464L176 180.856C173.333 182.396 170 180.472 170 177.392V156.608C170 153.528 173.333 151.604 176 153.144L194 163.536Z" fill="white" fill-opacity="0.1"/>
<path d="M194 243.536C196.667 245.075 196.667 248.925 194 250.464L176 260.856C173.333 262.396 170 260.472 170 257.392V236.608C170 233.528 173.333 231.604 176 233.144L194 243.536Z" fill="white" fill-opacity="0.1"/>
<path d="M234 223.536C236.667 225.075 236.667 228.925 234 230.464L216 240.856C213.333 242.396 210 240.472 210 237.392V216.608C210 213.528 213.333 211.604 216 213.144L234 223.536Z" fill="white" fill-opacity="0.1"/>
<path d="M234 143.536C236.667 145.075 236.667 148.925 234 150.464L216 160.856C213.333 162.396 210 160.472 210 157.392V136.608C210 133.528 213.333 131.604 216 133.144L234 143.536Z" fill="white" fill-opacity="0.1"/>
<path d="M234 183.536C236.667 185.075 236.667 188.925 234 190.464L216 200.856C213.333 202.396 210 200.472 210 197.392V176.608C210 173.528 213.333 171.604 216 173.144L234 183.536Z" fill="white" fill-opacity="0.1"/>
<path d="M114 243.536C116.667 245.075 116.667 248.925 114 250.464L96 260.856C93.3333 262.396 90 260.472 90 257.392V236.608C90 233.528 93.3333 231.604 96 233.144L114 243.536Z" fill="white" fill-opacity="0.1"/>
<path d="M114 283.536C116.667 285.075 116.667 288.925 114 290.464L96 300.856C93.3333 302.396 90 300.472 90 297.392V276.608C90 273.528 93.3333 271.604 96 273.144L114 283.536Z" fill="white" fill-opacity="0.1"/>
<path d="M114 163.536C116.667 165.075 116.667 168.925 114 170.464L96 180.856C93.3333 182.396 90 180.472 90 177.392V156.608C90 153.528 93.3333 151.604 96 153.144L114 163.536Z" fill="white" fill-opacity="0.1"/>
<path d="M114 83.5359C116.667 85.0755 116.667 88.9245 114 90.4641L96 100.856C93.3333 102.396 90 100.472 90 97.3923V76.6077C90 73.5285 93.3333 71.604 96 73.1436L114 83.5359Z" fill="white" fill-opacity="0.1"/>
<path d="M114 203.536C116.667 205.075 116.667 208.925 114 210.464L96 220.856C93.3333 222.396 90 220.472 90 217.392V196.608C90 193.528 93.3333 191.604 96 193.144L114 203.536Z" fill="white" fill-opacity="0.1"/>
<path d="M114 123.536C116.667 125.075 116.667 128.925 114 130.464L96 140.856C93.3333 142.396 90 140.472 90 137.392V116.608C90 113.528 93.3333 111.604 96 113.144L114 123.536Z" fill="white" fill-opacity="0.1"/>
<path d="M274 203.536C276.667 205.075 276.667 208.925 274 210.464L256 220.856C253.333 222.396 250 220.472 250 217.392V196.608C250 193.528 253.333 191.604 256 193.144L274 203.536Z" fill="white" fill-opacity="0.1"/>
<path d="M274 163.536C276.667 165.075 276.667 168.925 274 170.464L256 180.856C253.333 182.396 250 180.472 250 177.392V156.608C250 153.528 253.333 151.604 256 153.144L274 163.536Z" fill="white" fill-opacity="0.1"/>
<path d="M74 183.536C76.6667 185.075 76.6667 188.925 74 190.464L56 200.856C53.3333 202.396 50 200.472 50 197.392V176.608C50 173.528 53.3333 171.604 56 173.144L74 183.536Z" fill="white" fill-opacity="0.1"/>
<path d="M74 103.536C76.6667 105.075 76.6667 108.925 74 110.464L56 120.856C53.3333 122.396 50 120.472 50 117.392V96.6077C50 93.5285 53.3333 91.604 56 93.1436L74 103.536Z" fill="white" fill-opacity="0.1"/>
<path d="M74 263.536C76.6667 265.075 76.6667 268.925 74 270.464L56 280.856C53.3333 282.396 50 280.472 50 277.392V256.608C50 253.528 53.3333 251.604 56 253.144L74 263.536Z" fill="white" fill-opacity="0.1"/>
<path d="M74 63.5359C76.6667 65.0755 76.6667 68.9245 74 70.4641L56 80.8564C53.3333 82.396 50 80.4715 50 77.3923V56.6077C50 53.5285 53.3333 51.604 56 53.1436L74 63.5359Z" fill="white" fill-opacity="0.1"/>
<path d="M74 223.536C76.6667 225.075 76.6667 228.925 74 230.464L56 240.856C53.3333 242.396 50 240.472 50 237.392V216.608C50 213.528 53.3333 211.604 56 213.144L74 223.536Z" fill="white" fill-opacity="0.1"/>
<path d="M74 143.536C76.6667 145.075 76.6667 148.925 74 150.464L56 160.856C53.3333 162.396 50 160.472 50 157.392V136.608C50 133.528 53.3333 131.604 56 133.144L74 143.536Z" fill="white" fill-opacity="0.1"/>
<path d="M74 303.536C76.6667 305.075 76.6667 308.925 74 310.464L56 320.856C53.3333 322.396 50 320.472 50 317.392V296.608C50 293.528 53.3333 291.604 56 293.144L74 303.536Z" fill="white" fill-opacity="0.1"/>
<path d="M34 43.5359C36.6667 45.0755 36.6667 48.9245 34 50.4641L16 60.8564C13.3333 62.396 10 60.4715 10 57.3923L10 36.6077C10 33.5285 13.3333 31.604 16 33.1436L34 43.5359Z" fill="white" fill-opacity="0.1"/>
<path d="M34 203.536C36.6667 205.075 36.6667 208.925 34 210.464L16 220.856C13.3333 222.396 10 220.472 10 217.392L10 196.608C10 193.528 13.3333 191.604 16 193.144L34 203.536Z" fill="white" fill-opacity="0.1"/>
<path d="M34 123.536C36.6667 125.075 36.6667 128.925 34 130.464L16 140.856C13.3333 142.396 10 140.472 10 137.392L10 116.608C10 113.528 13.3333 111.604 16 113.144L34 123.536Z" fill="white" fill-opacity="0.1"/>
<path d="M34 283.536C36.6667 285.075 36.6667 288.925 34 290.464L16 300.856C13.3333 302.396 10 300.472 10 297.392L10 276.608C10 273.528 13.3333 271.604 16 273.144L34 283.536Z" fill="white" fill-opacity="0.1"/>
<path d="M34 83.5359C36.6667 85.0755 36.6667 88.9245 34 90.4641L16 100.856C13.3333 102.396 10 100.472 10 97.3923L10 76.6077C10 73.5285 13.3333 71.604 16 73.1436L34 83.5359Z" fill="white" fill-opacity="0.1"/>
<path d="M34 243.536C36.6667 245.075 36.6667 248.925 34 250.464L16 260.856C13.3333 262.396 10 260.472 10 257.392L10 236.608C10 233.528 13.3333 231.604 16 233.144L34 243.536Z" fill="white" fill-opacity="0.1"/>
<path d="M34 163.536C36.6667 165.075 36.6667 168.925 34 170.464L16 180.856C13.3333 182.396 10 180.472 10 177.392L10 156.608C10 153.528 13.3333 151.604 16 153.144L34 163.536Z" fill="white" fill-opacity="0.1"/>
<path d="M34 323.536C36.6667 325.075 36.6667 328.925 34 330.464L16 340.856C13.3333 342.396 10 340.472 10 337.392L10 316.608C10 313.528 13.3333 311.604 16 313.144L34 323.536Z" fill="white" fill-opacity="0.1"/>
<path d="M1094.05 55.8619H1091.14V52.9503C1091.14 52.4264 1090.71 52 1090.19 52H1087.81C1087.29 52 1086.86 52.4264 1086.86 52.9503V55.8619H1083.95C1083.43 55.8619 1083 56.2883 1083 56.8122V59.1878C1083 59.7117 1083.43 60.1381 1083.95 60.1381H1086.86V63.0497C1086.86 63.5736 1087.29 64 1087.81 64H1090.19C1090.71 64 1091.14 63.5736 1091.14 63.0497V60.1381H1094.05C1094.57 60.1381 1095 59.7117 1095 59.1878V56.8122C1095 56.2883 1094.57 55.8619 1094.05 55.8619Z" fill="#2B9D6A"/>
<path d="M1109.45 197.508H1106.49V194.55C1106.49 193.697 1105.8 193 1104.94 193H1103.06C1102.2 193 1101.51 193.692 1101.51 194.55V197.508H1098.55C1097.7 197.508 1097 198.2 1097 199.058V200.942C1097 201.795 1097.69 202.492 1098.55 202.492H1101.51V205.45C1101.51 206.308 1102.2 207 1103.06 207H1104.94C1105.8 207 1106.49 206.308 1106.49 205.45V202.492H1109.45C1110.31 202.492 1111 201.8 1111 200.942V199.058C1111 198.205 1110.31 197.508 1109.45 197.508Z" fill="#2B9D6A"/>
<path d="M1073 130C1077.42 130 1081 126.418 1081 122C1081 117.582 1077.42 114 1073 114C1068.58 114 1065 117.582 1065 122C1065 126.418 1068.58 130 1073 130Z" fill="#53B27C" fill-opacity="0.4"/>
<path d="M1087 236C1090.31 236 1093 233.314 1093 230C1093 226.686 1090.31 224 1087 224C1083.69 224 1081 226.686 1081 230C1081 233.314 1083.69 236 1087 236Z" fill="#53B27C" fill-opacity="0.4"/>
<path d="M621.384 46.7386L617.872 44.8423L619.768 41.3306C620.075 40.7581 619.866 40.0476 619.293 39.7358L616.333 38.141C615.761 37.8343 615.05 38.0438 614.739 38.6163L612.842 42.128L609.331 40.2316C608.758 39.9249 608.048 40.1345 607.736 40.707L606.141 43.6666C605.834 44.2391 606.044 44.9496 606.616 45.2614L610.128 47.1578L608.232 50.6694C607.925 51.2419 608.134 51.9524 608.707 52.2642L611.667 53.859C612.239 54.1657 612.95 53.9562 613.261 53.3837L615.158 49.872L618.669 51.7684C619.242 52.0751 619.952 51.8656 620.264 51.2931L621.859 48.3334C622.166 47.7609 621.956 47.0453 621.384 46.7386Z" fill="#2B9D6A"/>
</svg>
