<svg width="450" height="450" viewBox="0 0 450 450" fill="none" xmlns="http://www.w3.org/2000/svg">
<path d="M285.506 334.087L403.037 266.228C407.257 263.792 406.727 259.534 401.854 256.722L173.848 125.085C168.975 122.273 161.6 121.963 157.38 124.404L39.8494 192.258C35.6291 194.694 36.1596 198.952 41.0324 201.764L269.038 333.402C273.911 336.218 281.281 336.523 285.506 334.087Z" fill="#FAF7FC"/>
<path d="M37 196.793V206.421C37 208.285 38.3661 210.257 41.0279 211.796L269.038 343.434C271.432 344.819 274.432 345.598 277.366 345.734V335.698C274.432 335.557 271.432 334.787 269.038 333.397L41.0279 201.76C40.9809 201.732 40.934 201.703 40.8964 201.685C38.521 200.272 37.2206 198.521 37.0235 196.812L37 196.793Z" fill="#BDAED5"/>
<path d="M285.506 334.087L403.037 266.229C404.788 265.219 405.708 263.891 405.854 262.487H405.858V271.688C406.056 273.397 405.131 275.054 403.037 276.265L285.506 344.119C283.361 345.354 280.399 345.884 277.366 345.734V335.702C280.399 335.852 283.356 335.326 285.506 334.087Z" fill="#D1C8E2"/>
<path d="M380.757 248.253L179.881 132.276C177.097 130.666 172.882 130.493 170.469 131.887L52.8205 199.816C50.4076 201.21 50.7127 203.642 53.4965 205.247L254.373 321.224C257.157 322.83 261.372 323.008 263.78 321.614L381.433 253.689C383.846 252.295 383.546 249.863 380.757 248.253Z" fill="url(#paint0_linear_20_1467)"/>
<path d="M86.6721 170.119L117.106 152.552C117.989 152.04 119.421 152.04 120.303 152.552C121.186 153.064 121.186 153.89 120.303 154.397L89.8737 171.963C88.9911 172.475 87.5593 172.475 86.6768 171.963C85.7895 171.456 85.7895 170.63 86.6721 170.119Z" fill="#A328D6"/>
<path d="M332.592 314.126L350.656 303.695C351.44 303.244 352.078 302.028 352.078 300.982C352.078 299.935 351.445 299.456 350.656 299.907L332.592 310.338C331.808 310.788 331.169 312.004 331.169 313.051C331.169 314.098 331.808 314.577 332.592 314.126Z" fill="#8B7EAD"/>
<path d="M189.227 304.743C192.504 306.634 192.105 309.935 188.35 312.118L157.347 330.135C153.592 332.318 147.907 332.553 144.63 330.661L90.9018 299.64C87.6251 297.748 88.01 294.452 91.7703 292.269L122.773 274.252C126.528 272.069 132.227 271.825 135.504 273.717L189.227 304.743Z" fill="url(#paint1_linear_20_1467)"/>
<path d="M144.626 330.661L90.8974 299.64C89.3998 298.776 88.6675 297.621 88.6722 296.41L88.6675 297.983C88.6628 299.194 89.3951 300.349 90.8927 301.213L144.621 332.234C146.208 333.149 148.362 333.557 150.588 333.496V331.924C148.367 331.985 146.212 331.576 144.626 330.661Z" fill="#931ABC"/>
<path d="M157.343 331.708L188.345 313.69C190.392 312.503 191.439 310.982 191.443 309.54L191.448 307.968C191.443 309.409 190.392 310.93 188.35 312.118L157.347 330.135C155.409 331.262 152.958 331.858 150.592 331.924V333.496C152.958 333.431 155.404 332.834 157.343 331.708Z" fill="url(#paint2_linear_20_1467)"/>
<path d="M106.802 290.1C107.797 289.523 109.262 289.56 110.309 290.166C110.942 290.532 111.215 290.954 111.116 291.382L109.806 291.339C109.858 291.091 109.769 290.879 109.478 290.71C109.022 290.447 108.403 290.452 107.905 290.739C107.408 291.025 107.398 291.382 107.853 291.645C108.145 291.814 108.511 291.865 108.943 291.837L109.018 292.593C108.281 292.649 107.548 292.494 106.915 292.128C105.872 291.522 105.807 290.678 106.802 290.1Z" fill="#D54FE1"/>
<path d="M111.703 293.86L111.407 293.687L110.59 294.156L109.497 293.523L112.74 291.649L114.304 292.551C115.21 293.072 115.308 293.677 114.557 294.114C114.088 294.386 113.515 294.461 112.924 294.349L112.604 295.32L111.435 294.644L111.703 293.86ZM113.393 293.006L112.994 292.776L112.233 293.217L112.632 293.447C112.933 293.621 113.224 293.621 113.459 293.485C113.693 293.344 113.693 293.18 113.393 293.006Z" fill="#D54FE1"/>
<path d="M117.21 297.029L116.383 297.508L113.684 295.949L116.928 294.076L119.566 295.597L118.74 296.076L117.177 295.175L116.797 295.395L118.167 296.189L117.379 296.644L116.008 295.851L115.581 296.1L117.21 297.029Z" fill="#D54FE1"/>
<path d="M120.792 296.301L122.392 297.226C123.477 297.855 123.608 298.639 122.599 299.221C121.594 299.803 120.228 299.728 119.144 299.099L117.543 298.174L120.792 296.301ZM119.951 298.582C120.411 298.845 120.998 298.873 121.496 298.587C121.993 298.301 121.951 297.963 121.491 297.695L121.031 297.432L119.491 298.319L119.951 298.582Z" fill="#D54FE1"/>
<path d="M125.359 298.94L126.453 299.573L123.209 301.447L122.115 300.813L125.359 298.94Z" fill="#D54FE1"/>
<path d="M127.575 301.198L126.627 300.648L127.476 300.16L130.471 301.888L129.622 302.376L128.669 301.827L126.27 303.212L125.176 302.578L127.575 301.198Z" fill="#D54FE1"/>
<path d="M131.861 304.568C132.856 303.99 134.326 304.028 135.368 304.634C136.002 305 136.274 305.422 136.175 305.849L134.865 305.807C134.917 305.558 134.828 305.347 134.537 305.178C134.081 304.915 133.462 304.92 132.964 305.206C132.467 305.493 132.457 305.849 132.913 306.112C133.204 306.281 133.57 306.333 134.002 306.305L134.077 307.061C133.34 307.117 132.607 306.962 131.974 306.596C130.932 305.99 130.866 305.145 131.861 304.568Z" fill="#D54FE1"/>
<path d="M137.288 308.92L136.053 308.206L135.269 308.408L134.157 307.765L138.818 306.709L139.893 307.329L138.067 310.023L136.936 309.371L137.288 308.92ZM137.771 308.291L138.274 307.638L137.142 307.93L137.771 308.291Z" fill="#D54FE1"/>
<path d="M141.189 310.887L140.893 310.718L140.076 311.187L138.982 310.554L142.226 308.681L143.79 309.582C144.696 310.103 144.794 310.709 144.043 311.145C143.574 311.417 143.001 311.493 142.409 311.38L142.09 312.352L140.921 311.676L141.189 310.887ZM142.879 310.028L142.48 309.798L141.719 310.234L142.118 310.464C142.419 310.638 142.71 310.638 142.945 310.502C143.179 310.371 143.179 310.202 142.879 310.028Z" fill="#D54FE1"/>
<path d="M146.419 311.098L148.02 312.023C149.104 312.648 149.235 313.436 148.226 314.018C147.221 314.601 145.855 314.525 144.771 313.896L143.17 312.972L146.419 311.098ZM145.583 313.38C146.043 313.643 146.63 313.671 147.128 313.385C147.625 313.098 147.583 312.76 147.123 312.493L146.663 312.23L145.123 313.117L145.583 313.38Z" fill="#D54FE1"/>
<path d="M103.685 292.898L101.239 294.311L100.784 294.048L102.849 292.856L102.333 292.556L102.713 292.335L103.685 292.898Z" fill="#AD31D5"/>
<path d="M104.342 295.659L103.957 295.879L102.155 294.837L102.46 294.663L104.356 294.692C104.821 294.696 105.004 294.64 105.145 294.56C105.37 294.429 105.347 294.269 105.042 294.095C104.802 293.959 104.525 293.889 104.215 293.912L104.14 293.588C104.586 293.551 105.075 293.659 105.474 293.889C106.004 294.194 106.079 294.551 105.643 294.8C105.403 294.936 105.121 295.025 104.464 295.011L103.187 294.992L104.342 295.659Z" fill="#AD31D5"/>
<path d="M107.15 296.879C106.736 297.119 106.07 297.142 105.413 296.762C105.065 296.56 104.826 296.302 104.774 296.067L105.323 295.978C105.352 296.161 105.521 296.372 105.798 296.532C106.121 296.72 106.459 296.748 106.685 296.616C106.905 296.49 106.887 296.311 106.516 296.1L106.29 295.973L106.6 295.795L107.816 295.734L106.704 295.091L107.084 294.87L108.75 295.832L108.445 296.006L107.145 296.072C107.558 296.372 107.516 296.668 107.15 296.879Z" fill="#AD31D5"/>
<path d="M109.91 298.677L109.473 298.428L108.919 298.748L108.478 298.494L109.032 298.175L107.689 297.4L108.004 297.217L110.788 297.006L111.271 297.288L108.628 297.504L109.431 297.964L109.924 297.677L110.351 297.921L109.858 298.208L110.295 298.457L109.91 298.677Z" fill="#AD31D5"/>
<path d="M113.961 300.789C113.529 301.038 112.863 301.062 112.206 300.686C111.858 300.489 111.614 300.226 111.572 299.991L112.116 299.897C112.149 300.085 112.318 300.292 112.595 300.451C112.919 300.639 113.257 300.667 113.487 300.536C113.722 300.4 113.717 300.231 113.21 299.935L112.619 299.592L114.079 298.897L115.515 299.728L115.135 299.949L114.083 299.343L113.464 299.639L113.698 299.775C114.421 300.188 114.398 300.541 113.961 300.789Z" fill="#AD31D5"/>
<path d="M116.646 302.33C116.158 302.611 115.459 302.56 114.956 302.269C114.29 301.884 114.327 301.41 115.116 300.954C115.956 300.471 116.904 300.485 117.613 300.893C117.857 301.034 118.04 301.198 118.097 301.353L117.585 301.452C117.538 301.325 117.411 301.212 117.238 301.114C116.778 300.846 116.2 300.846 115.642 301.165H115.637C115.956 301.151 116.275 301.241 116.548 301.395C117.036 301.691 117.102 302.067 116.646 302.33ZM116.181 302.09C116.435 301.945 116.407 301.738 116.111 301.569C115.815 301.4 115.435 301.386 115.196 301.527C114.966 301.658 114.966 301.87 115.29 302.057C115.571 302.217 115.928 302.236 116.181 302.09Z" fill="#AD31D5"/>
<path d="M120.862 302.813L120.557 302.987L117.463 303.677L116.98 303.395L119.961 302.734L118.998 302.18L118.581 302.419L118.158 302.175L118.961 301.715L120.862 302.813Z" fill="#AD31D5"/>
<path d="M121.777 305.357C121.322 305.62 120.646 305.555 120.036 305.203C119.425 304.85 119.322 304.465 119.778 304.203C120.045 304.048 120.388 304.015 120.754 304.09C120.665 303.916 120.731 303.752 120.965 303.616C121.383 303.372 122.017 303.433 122.557 303.747C123.101 304.062 123.209 304.428 122.791 304.672C122.561 304.803 122.275 304.841 121.965 304.789C122.101 305.005 122.045 305.203 121.777 305.357ZM121.336 305.085C121.576 304.944 121.519 304.738 121.181 304.545C120.848 304.353 120.491 304.32 120.252 304.461C120.003 304.606 120.059 304.808 120.397 305.001C120.731 305.193 121.087 305.231 121.336 305.085ZM121.388 303.893C121.177 304.015 121.219 304.193 121.505 304.358C121.796 304.527 122.106 304.55 122.317 304.428C122.538 304.301 122.477 304.118 122.195 303.958C121.918 303.794 121.608 303.766 121.388 303.893Z" fill="#AD31D5"/>
<path d="M125.942 307.761C125.486 308.024 124.81 307.958 124.2 307.606C123.59 307.254 123.486 306.869 123.942 306.606C124.209 306.451 124.552 306.414 124.918 306.493C124.829 306.32 124.895 306.155 125.129 306.019C125.547 305.775 126.176 305.836 126.721 306.151C127.265 306.465 127.373 306.831 126.956 307.076C126.725 307.207 126.439 307.245 126.129 307.193C126.265 307.409 126.209 307.606 125.942 307.761ZM125.5 307.489C125.74 307.348 125.683 307.141 125.345 306.949C125.012 306.756 124.655 306.724 124.416 306.864C124.167 307.01 124.223 307.212 124.561 307.404C124.899 307.597 125.251 307.634 125.5 307.489ZM125.552 306.296C125.341 306.418 125.383 306.597 125.674 306.761C125.965 306.93 126.275 306.954 126.486 306.831C126.707 306.705 126.641 306.522 126.364 306.362C126.082 306.202 125.772 306.17 125.552 306.296Z" fill="#AD31D5"/>
<path d="M129.143 308.963C128.303 309.446 127.354 309.432 126.645 309.024C126.401 308.883 126.218 308.719 126.157 308.559L126.669 308.461C126.711 308.587 126.843 308.7 127.016 308.799C127.476 309.066 128.054 309.066 128.612 308.747H128.617C128.298 308.761 127.979 308.677 127.706 308.517C127.223 308.24 127.157 307.86 127.617 307.597C128.105 307.315 128.805 307.367 129.307 307.653C129.964 308.033 129.927 308.508 129.143 308.963ZM129.063 308.4C129.293 308.268 129.293 308.057 128.969 307.869C128.688 307.705 128.331 307.686 128.073 307.832C127.819 307.977 127.847 308.184 128.148 308.353C128.439 308.522 128.819 308.536 129.063 308.4Z" fill="#AD31D5"/>
<path d="M129.866 309.427C130.669 308.963 131.565 308.953 132.148 309.291C132.73 309.629 132.716 310.145 131.913 310.61C131.11 311.075 130.213 311.084 129.631 310.746C129.049 310.408 129.063 309.892 129.866 309.427ZM131.453 310.343C132.044 310 132.086 309.709 131.748 309.516C131.415 309.324 130.913 309.347 130.321 309.69C129.73 310.033 129.688 310.324 130.021 310.512C130.359 310.709 130.866 310.685 131.453 310.343Z" fill="#AD31D5"/>
<path d="M134.734 310.827L132.288 312.24L131.833 311.977L133.899 310.785L133.382 310.484L133.762 310.264L134.734 310.827Z" fill="#AD31D5"/>
<path d="M136.814 314.408L136.429 314.629L134.626 313.587L134.931 313.413L136.828 313.441C137.293 313.446 137.476 313.39 137.617 313.31C137.842 313.183 137.818 313.019 137.513 312.845C137.274 312.709 136.997 312.639 136.687 312.662L136.612 312.338C137.058 312.301 137.546 312.409 137.945 312.643C138.476 312.949 138.551 313.305 138.114 313.554C137.875 313.69 137.593 313.779 136.936 313.765L135.659 313.747L136.814 314.408Z" fill="#AD31D5"/>
<path d="M139.621 315.624C139.208 315.864 138.542 315.887 137.884 315.507C137.537 315.31 137.297 315.047 137.246 314.812L137.795 314.723C137.823 314.911 137.992 315.117 138.269 315.277C138.593 315.465 138.931 315.493 139.157 315.361C139.377 315.235 139.358 315.061 138.987 314.845L138.762 314.714L139.072 314.535L140.288 314.474L139.175 313.831L139.556 313.61L141.222 314.573L140.917 314.746L139.617 314.812C140.03 315.117 139.987 315.413 139.621 315.624Z" fill="#AD31D5"/>
<path d="M142.381 317.422L141.945 317.174L141.391 317.493L140.95 317.239L141.504 316.92L140.161 316.145L140.475 315.962L143.259 315.751L143.743 316.033L141.1 316.249L141.903 316.709L142.395 316.422L142.823 316.667L142.33 316.953L142.766 317.202L142.381 317.422Z" fill="#AD31D5"/>
<path d="M144.996 318.708C144.565 318.957 143.898 318.981 143.241 318.605C142.893 318.408 142.649 318.145 142.607 317.91L143.151 317.816C143.184 318.004 143.353 318.211 143.63 318.37C143.954 318.558 144.292 318.586 144.522 318.455C144.757 318.319 144.752 318.15 144.245 317.854L143.654 317.511L145.114 316.816L146.55 317.647L146.17 317.868L145.118 317.262L144.499 317.558L144.734 317.694C145.456 318.107 145.433 318.459 144.996 318.708Z" fill="#AD31D5"/>
<path d="M126.857 292.274L117.407 286.819C116.491 286.289 116.604 285.364 117.665 284.754L121.758 282.388C122.819 281.777 124.42 281.712 125.336 282.238L134.786 287.693C135.701 288.223 135.588 289.148 134.527 289.758L130.434 292.124C129.378 292.739 127.772 292.805 126.857 292.274Z" fill="#FFB7D4"/>
<path d="M123.397 284.519L124.195 284.979L127.138 283.279L126.34 282.819L123.397 284.519ZM125.059 285.476L125.857 285.936L128.8 284.237L128.002 283.777L125.059 285.476ZM132.978 286.655L130.035 288.354L130.833 288.814L133.776 287.115L132.978 286.655ZM128.378 287.396L129.176 287.856L132.119 286.157L131.321 285.697L128.378 287.396ZM126.72 286.434L127.518 286.894L130.462 285.195L129.664 284.735L126.72 286.434Z" fill="#AD31D5"/>
<path d="M118.411 287.401L119.209 287.861L122.153 286.162L121.355 285.702L118.411 287.401ZM120.068 288.359L120.866 288.819L123.81 287.12L123.012 286.66L120.068 288.359ZM127.993 289.537L125.049 291.237L125.847 291.697L128.791 289.997L127.993 289.537ZM123.392 290.274L124.19 290.735L127.133 289.035L126.335 288.575L123.392 290.274ZM121.73 289.317L122.528 289.777L125.472 288.077L124.674 287.617L121.73 289.317Z" fill="#AD31D5"/>
<path d="M179.707 305.029L178.135 304.123C175.337 302.508 170.403 302.71 167.173 304.579C163.943 306.442 163.587 309.292 166.384 310.907L167.957 311.818C170.755 313.432 175.689 313.231 178.919 311.362C182.153 309.494 182.505 306.644 179.707 305.029Z" fill="#FFB7D4"/>
<path d="M144.616 131.436V105.692C144.616 101.026 147.893 95.3548 151.93 93.0216L176.219 78.9993C180.261 76.6661 183.533 78.558 183.533 83.2243V108.969" stroke="#820EAA" stroke-width="3.9547" stroke-miterlimit="10" stroke-linecap="round" stroke-linejoin="round"/>
<path d="M221.441 189.549L141.964 235.433L126.063 134.483L204.151 89.3927L221.441 189.549Z" fill="url(#paint3_linear_20_1467)"/>
<path d="M141.964 235.433L110.168 217.083L122.233 132.268L126.063 134.483L141.964 235.433Z" fill="#D54FE1"/>
<path d="M204.151 89.3928L200.32 87.1817L122.233 132.267L126.063 134.483L204.151 89.3928Z" fill="#FFB7D4"/>
<path d="M110.168 217.083L126.063 207.9L123.96 133.094L122.233 132.268L110.168 217.083Z" fill="#FF97CC"/>
<path d="M126.063 207.899L141.964 235.432L110.168 217.082L126.063 207.899Z" fill="#931ABC"/>
<path d="M147.25 134.483V108.739C147.25 104.072 150.527 98.4014 154.564 96.0683L178.853 82.0459C182.895 79.7127 186.167 81.6046 186.167 86.2709V112.015" stroke="#AD31D5" stroke-width="3.9547" stroke-miterlimit="10" stroke-linecap="round" stroke-linejoin="round"/>
<path d="M277.793 162.415L277.558 200.121L316.105 222.377L323.954 189.066L277.793 162.415ZM288.154 195.943C288.154 196.877 287.586 197.309 286.882 196.905L286.694 196.797C285.994 196.394 285.422 195.304 285.422 194.37V180.184C285.422 179.249 285.99 178.818 286.694 179.221L286.882 179.329C287.581 179.733 288.154 180.822 288.154 181.756V195.943ZM297.838 201.539C297.838 202.473 297.27 202.905 296.566 202.501L296.378 202.393C295.679 201.989 295.106 200.9 295.106 199.966V185.775C295.106 184.84 295.674 184.409 296.378 184.812L296.566 184.92C297.266 185.324 297.838 186.413 297.838 187.347V201.539ZM307.528 207.13C307.528 208.064 306.96 208.496 306.256 208.092L306.068 207.984C305.368 207.58 304.796 206.491 304.796 205.557V191.371C304.796 190.436 305.364 190.004 306.068 190.408L306.256 190.516C306.955 190.92 307.528 192.009 307.528 192.943V207.13Z" fill="url(#paint4_linear_20_1467)"/>
<path d="M307.467 207.426L307.279 207.318C306.579 206.914 306.007 205.825 306.007 204.891V190.704C306.007 190.591 306.016 190.488 306.03 190.39C305.35 190.023 304.8 190.451 304.8 191.366V205.553C304.8 206.487 305.368 207.576 306.073 207.98L306.26 208.088C306.875 208.444 307.392 208.153 307.504 207.445C307.49 207.435 307.476 207.435 307.467 207.426Z" fill="#67038B"/>
<path d="M288.088 196.239L287.9 196.131C287.201 195.728 286.628 194.638 286.628 193.704V179.518C286.628 179.405 286.637 179.302 286.652 179.203C285.971 178.837 285.422 179.264 285.422 180.179V194.366C285.422 195.3 285.99 196.389 286.694 196.793L286.882 196.901C287.497 197.258 288.013 196.967 288.126 196.258C288.116 196.249 288.102 196.249 288.088 196.239Z" fill="#67038B"/>
<path d="M297.778 201.835L297.59 201.727C296.89 201.323 296.318 200.234 296.318 199.3V185.113C296.318 185.001 296.327 184.897 296.341 184.799C295.66 184.433 295.111 184.86 295.111 185.775V199.962C295.111 200.896 295.679 201.985 296.383 202.389L296.571 202.497C297.186 202.854 297.702 202.563 297.815 201.854C297.801 201.844 297.792 201.84 297.778 201.835Z" fill="#67038B"/>
<path d="M211.517 200.68L219.366 233.72L277.554 200.126L277.788 162.42L211.517 200.68ZM238.552 216.744C238.552 217.679 237.984 218.768 237.28 219.171L237.092 219.279C236.393 219.683 235.82 219.256 235.82 218.317V204.13C235.82 203.196 236.388 202.107 237.092 201.703L237.28 201.595C237.979 201.192 238.552 201.619 238.552 202.558V216.744ZM248.241 211.149C248.241 212.083 247.673 213.172 246.969 213.576L246.781 213.684C246.082 214.087 245.509 213.66 245.509 212.721V198.535C245.509 197.6 246.077 196.511 246.781 196.108L246.969 196C247.669 195.596 248.241 196.023 248.241 196.962V211.149ZM257.926 205.558C257.926 206.492 257.358 207.581 256.654 207.985L256.466 208.093C255.767 208.496 255.194 208.069 255.194 207.13V192.943C255.194 192.009 255.762 190.92 256.466 190.516L256.654 190.408C257.353 190.005 257.926 190.432 257.926 191.371V205.558ZM267.615 199.962C267.615 200.896 267.047 201.985 266.343 202.389L266.156 202.497C265.456 202.9 264.883 202.473 264.883 201.534V187.348C264.883 186.413 265.451 185.324 266.156 184.921L266.343 184.813C267.043 184.409 267.615 184.836 267.615 185.775V199.962Z" fill="url(#paint5_linear_20_1467)"/>
<path d="M247.34 195.872C247.406 196.037 247.439 196.238 247.439 196.473V210.66C247.439 211.594 246.871 212.683 246.167 213.087L245.979 213.195C245.848 213.27 245.726 213.308 245.608 213.326C245.801 213.824 246.251 213.993 246.777 213.688L246.965 213.58C247.664 213.176 248.237 212.087 248.237 211.153V196.966C248.242 196.201 247.861 195.783 247.34 195.872Z" fill="#931ABC"/>
<path d="M237.651 201.464C237.717 201.628 237.75 201.83 237.75 202.065V216.252C237.75 217.186 237.182 218.275 236.477 218.679L236.29 218.787C236.158 218.862 236.036 218.899 235.919 218.918C236.111 219.416 236.562 219.585 237.088 219.28L237.275 219.172C237.975 218.768 238.548 217.679 238.548 216.745V202.558C238.552 201.793 238.172 201.375 237.651 201.464Z" fill="#931ABC"/>
<path d="M257.025 190.277C257.091 190.441 257.124 190.643 257.124 190.878V205.064C257.124 205.998 256.556 207.088 255.851 207.491L255.664 207.599C255.532 207.674 255.41 207.712 255.293 207.731C255.485 208.228 255.936 208.397 256.462 208.092L256.649 207.984C257.349 207.581 257.922 206.491 257.922 205.557V191.371C257.926 190.605 257.546 190.188 257.025 190.277Z" fill="#931ABC"/>
<path d="M266.714 184.686C266.78 184.85 266.813 185.052 266.813 185.287V199.473C266.813 200.407 266.245 201.497 265.541 201.9L265.353 202.008C265.222 202.083 265.1 202.121 264.982 202.14C265.175 202.637 265.625 202.806 266.151 202.501L266.339 202.393C267.038 201.99 267.611 200.9 267.611 199.966V185.775C267.616 185.014 267.236 184.597 266.714 184.686Z" fill="#931ABC"/>
<path d="M316.105 222.383L257.912 255.976L219.366 233.72L277.554 200.126L316.105 222.383Z" fill="#FFB7D4"/>
<path d="M257.677 227.33L211.516 200.68L219.366 233.719C219.366 233.719 257.179 255.553 257.912 255.976L257.677 227.33ZM226.393 232.316C226.393 233.25 225.825 233.682 225.121 233.278L224.933 233.17C224.234 232.766 223.661 231.677 223.661 230.743V216.556C223.661 215.622 224.229 215.19 224.933 215.594L225.121 215.702C225.82 216.106 226.393 217.195 226.393 218.129V232.316ZM236.078 237.912C236.078 238.846 235.51 239.278 234.806 238.874L234.618 238.766C233.918 238.362 233.346 237.273 233.346 236.339V222.152C233.346 221.218 233.914 220.786 234.618 221.19L234.806 221.298C235.505 221.702 236.078 222.791 236.078 223.725V237.912ZM245.767 243.503C245.767 244.437 245.199 244.869 244.495 244.465L244.307 244.357C243.608 243.953 243.035 242.864 243.035 241.93V227.743C243.035 226.809 243.603 226.377 244.307 226.781L244.495 226.889C245.194 227.293 245.767 228.382 245.767 229.316V243.503Z" fill="#931ABC"/>
<path d="M245.701 243.804L245.514 243.696C244.814 243.292 244.241 242.203 244.241 241.269V227.082C244.241 226.969 244.251 226.866 244.265 226.767C243.579 226.401 243.035 226.828 243.035 227.744V241.931C243.035 242.865 243.603 243.954 244.307 244.358L244.495 244.466C245.11 244.822 245.626 244.531 245.739 243.822C245.73 243.813 245.715 243.813 245.701 243.804Z" fill="#67038B"/>
<path d="M226.327 232.616L226.14 232.508C225.44 232.104 224.867 231.015 224.867 230.081V215.894C224.867 215.782 224.877 215.679 224.891 215.58C224.21 215.214 223.661 215.641 223.661 216.556V230.743C223.661 231.677 224.229 232.766 224.933 233.17L225.121 233.278C225.736 233.635 226.252 233.344 226.365 232.635C226.351 232.626 226.341 232.626 226.327 232.616Z" fill="#67038B"/>
<path d="M236.017 238.212L235.829 238.104C235.13 237.7 234.557 236.611 234.557 235.677V221.49C234.557 221.378 234.566 221.274 234.58 221.176C233.9 220.81 233.35 221.237 233.35 222.152V236.334C233.35 237.268 233.918 238.357 234.623 238.761L234.81 238.869C235.425 239.226 235.942 238.935 236.054 238.226C236.04 238.221 236.031 238.217 236.017 238.212Z" fill="#67038B"/>
<path d="M257.677 227.33L257.912 255.976L316.1 222.382L323.949 189.07L257.677 227.33ZM277.098 239.001C277.098 239.935 276.53 241.024 275.826 241.428L275.638 241.536C274.939 241.939 274.366 241.512 274.366 240.573V226.387C274.366 225.452 274.934 224.363 275.638 223.96L275.826 223.852C276.526 223.448 277.098 223.875 277.098 224.814V239.001ZM286.788 233.405C286.788 234.339 286.22 235.428 285.515 235.832L285.328 235.94C284.628 236.344 284.055 235.916 284.055 234.977V220.796C284.055 219.861 284.623 218.772 285.328 218.368L285.515 218.261C286.215 217.857 286.788 218.284 286.788 219.223V233.405ZM296.477 227.809C296.477 228.743 295.909 229.832 295.205 230.236L295.017 230.344C294.318 230.748 293.745 230.321 293.745 229.382V215.195C293.745 214.261 294.313 213.172 295.017 212.768L295.205 212.66C295.904 212.256 296.477 212.683 296.477 213.622V227.809ZM306.166 222.218C306.166 223.152 305.598 224.241 304.894 224.645L304.706 224.753C304.007 225.157 303.434 224.729 303.434 223.791V209.604C303.434 208.67 304.002 207.581 304.706 207.177L304.894 207.069C305.594 206.665 306.166 207.092 306.166 208.031V222.218Z" fill="url(#paint6_linear_20_1467)"/>
<path d="M285.886 218.125C285.952 218.289 285.985 218.491 285.985 218.726V232.912C285.985 233.847 285.417 234.936 284.713 235.339L284.525 235.447C284.393 235.523 284.271 235.56 284.154 235.579C284.347 236.076 284.797 236.245 285.323 235.94L285.511 235.832C286.21 235.429 286.783 234.34 286.783 233.405V219.219C286.788 218.458 286.407 218.04 285.886 218.125Z" fill="#931ABC"/>
<path d="M276.197 223.72C276.263 223.884 276.295 224.086 276.295 224.321V238.507C276.295 239.441 275.727 240.531 275.023 240.934L274.835 241.042C274.704 241.117 274.582 241.155 274.465 241.174C274.657 241.671 275.108 241.84 275.634 241.535L275.821 241.427C276.521 241.023 277.093 239.934 277.093 239V224.814C277.098 224.048 276.718 223.631 276.197 223.72Z" fill="#931ABC"/>
<path d="M295.576 212.533C295.641 212.697 295.674 212.899 295.674 213.134V227.321C295.674 228.255 295.106 229.344 294.402 229.748L294.214 229.856C294.083 229.931 293.961 229.968 293.843 229.987C294.036 230.485 294.486 230.654 295.012 230.349L295.2 230.241C295.899 229.837 296.472 228.748 296.472 227.814V213.627C296.477 212.862 296.097 212.444 295.576 212.533Z" fill="#931ABC"/>
<path d="M305.26 206.938C305.326 207.102 305.359 207.304 305.359 207.538V221.725C305.359 222.659 304.791 223.748 304.087 224.152L303.899 224.26C303.768 224.335 303.645 224.373 303.528 224.392C303.721 224.889 304.171 225.058 304.697 224.753L304.885 224.645C305.584 224.241 306.157 223.152 306.157 222.218V208.031C306.166 207.266 305.781 206.848 305.26 206.938Z" fill="#931ABC"/>
<path d="M321.719 177.095C321.719 177.08 321.719 177.066 321.719 177.052C321.719 177.001 321.71 176.949 321.7 176.897C321.696 176.865 321.696 176.832 321.691 176.799C321.691 176.794 321.691 176.789 321.691 176.785C321.682 176.728 321.658 176.677 321.644 176.62C321.635 176.588 321.625 176.55 321.616 176.517C321.616 176.512 321.616 176.512 321.616 176.508C321.602 176.475 321.583 176.437 321.569 176.404C321.541 176.343 321.517 176.287 321.484 176.226C321.484 176.221 321.48 176.217 321.48 176.212C321.466 176.189 321.447 176.17 321.433 176.146C321.386 176.071 321.339 175.996 321.283 175.921C321.273 175.912 321.268 175.902 321.264 175.888C321.25 175.869 321.226 175.851 321.212 175.832C321.137 175.743 321.057 175.653 320.963 175.564C320.945 175.545 320.93 175.527 320.912 175.508C320.898 175.494 320.874 175.48 320.86 175.466C320.799 175.414 320.738 175.362 320.672 175.311C320.625 175.273 320.578 175.236 320.527 175.198C320.456 175.146 320.376 175.095 320.297 175.043C320.254 175.015 320.217 174.987 320.175 174.959C320.151 174.944 320.123 174.93 320.099 174.916L281.68 152.589C281.455 152.458 281.215 152.345 280.971 152.242C280.891 152.209 280.812 152.181 280.732 152.153C280.614 152.111 280.502 152.059 280.384 152.021C280.342 152.007 280.29 152.003 280.248 151.989C280.032 151.923 279.816 151.871 279.596 151.824C279.521 151.81 279.445 151.782 279.366 151.768C279.337 151.763 279.305 151.759 279.276 151.754C279.211 151.744 279.145 151.735 279.075 151.726C278.957 151.707 278.84 151.688 278.718 151.674C278.619 151.665 278.521 151.66 278.417 151.655C278.375 151.651 278.328 151.651 278.286 151.646C278.258 151.646 278.225 151.641 278.197 151.641C278.042 151.636 277.892 151.636 277.741 151.641C277.671 151.641 277.6 151.651 277.53 151.651C277.497 151.651 277.469 151.655 277.436 151.655C277.399 151.66 277.361 151.66 277.328 151.66C277.197 151.669 277.065 151.683 276.939 151.702C276.859 151.712 276.779 151.73 276.699 151.744C276.676 151.749 276.652 151.754 276.624 151.759C276.601 151.763 276.577 151.768 276.554 151.773C276.422 151.801 276.291 151.834 276.164 151.866C276.098 151.885 276.033 151.909 275.967 151.932C275.925 151.946 275.887 151.96 275.845 151.974C275.807 151.989 275.77 151.998 275.732 152.012C275.554 152.082 275.38 152.162 275.225 152.256L275.263 165.635C275.45 165.527 275.662 165.433 275.882 165.354C275.92 165.34 275.962 165.326 276.004 165.311C276.216 165.241 276.432 165.18 276.662 165.138C276.685 165.133 276.709 165.128 276.737 165.124C276.976 165.081 277.22 165.049 277.474 165.034C277.507 165.034 277.535 165.03 277.568 165.03C277.816 165.016 278.075 165.016 278.328 165.025C278.37 165.025 278.417 165.03 278.46 165.034C278.676 165.049 278.896 165.072 279.112 165.105C279.178 165.114 279.244 165.124 279.314 165.133C279.422 165.152 279.525 165.18 279.633 165.203C279.854 165.25 280.07 165.302 280.286 165.368C280.45 165.419 280.614 165.471 280.774 165.532C280.854 165.56 280.934 165.588 281.013 165.621C281.257 165.725 281.497 165.837 281.722 165.969L320.142 188.296C320.212 188.338 320.273 188.38 320.339 188.422C320.419 188.474 320.499 188.526 320.569 188.577C320.621 188.615 320.668 188.652 320.714 188.69C320.78 188.742 320.846 188.793 320.902 188.845C320.94 188.878 320.973 188.911 321.01 188.943C321.099 189.033 321.184 189.117 321.259 189.211C321.283 189.239 321.311 189.267 321.329 189.295C321.386 189.371 321.437 189.446 321.48 189.521C321.494 189.549 321.517 189.572 321.531 189.601C321.564 189.662 321.588 189.718 321.616 189.779C321.635 189.817 321.653 189.854 321.667 189.892C321.682 189.925 321.686 189.962 321.696 189.995C321.714 190.051 321.733 190.112 321.743 190.169C321.747 190.202 321.752 190.234 321.752 190.267C321.761 190.333 321.771 190.399 321.771 190.46L321.719 177.095Z" fill="#AD31D5"/>
<path d="M275.206 152.261L214.77 187.155C214.047 187.573 213.695 188.136 213.695 188.732L213.732 202.111C213.732 201.515 214.084 200.952 214.807 200.534L275.244 165.64L275.206 152.261Z" fill="url(#paint7_linear_20_1467)"/>
<path d="M323.902 177.081C323.907 178.006 323.339 178.898 322.189 179.565L261.752 214.459L261.79 227.838L322.226 192.944C323.376 192.277 323.944 191.39 323.94 190.46L323.902 177.081Z" fill="url(#paint8_linear_20_1467)"/>
<path d="M273.667 151.369C276.145 149.937 280.436 150.083 283.22 151.698L321.639 174.025C324.428 175.644 324.667 178.132 322.184 179.564L261.752 214.458C259.273 215.89 254.983 215.744 252.194 214.125L213.775 191.798C210.991 190.178 210.756 187.695 213.235 186.263L273.667 151.369ZM253.748 213.223C255.687 214.35 258.579 214.5 260.208 213.561L320.644 178.667C322.273 177.728 322.015 176.048 320.081 174.926L281.661 152.599C279.722 151.472 276.835 151.322 275.206 152.266L214.77 187.16C213.141 188.099 213.39 189.774 215.328 190.901L253.748 213.223Z" fill="#FFD0E5"/>
<path d="M261.752 214.457C261.461 214.626 261.142 214.767 260.804 214.894C260.743 214.917 260.677 214.936 260.616 214.96C260.292 215.068 259.959 215.166 259.612 215.241C259.602 215.241 259.593 215.246 259.588 215.246C259.203 215.326 258.799 215.382 258.391 215.41C258.372 215.41 258.358 215.41 258.339 215.415C257.931 215.443 257.513 215.457 257.095 215.443C257.091 215.443 257.086 215.443 257.081 215.443C256.715 215.429 256.344 215.392 255.978 215.345C255.865 215.331 255.757 215.316 255.645 215.298C255.438 215.265 255.241 215.218 255.039 215.176C254.762 215.115 254.49 215.054 254.222 214.974C253.988 214.903 253.758 214.833 253.537 214.748C253.429 214.706 253.316 214.669 253.208 214.626C252.856 214.481 252.518 214.321 252.199 214.138L213.779 191.811C213.681 191.755 213.592 191.694 213.503 191.633C213.399 191.567 213.291 191.497 213.197 191.426C213.127 191.375 213.061 191.318 212.991 191.267C212.902 191.196 212.817 191.126 212.737 191.055C212.686 191.009 212.643 190.966 212.596 190.919C212.474 190.802 212.366 190.685 212.268 190.563C212.23 190.516 212.188 190.473 212.155 190.426C212.085 190.333 212.024 190.239 211.967 190.145C211.939 190.098 211.902 190.046 211.874 189.999C211.831 189.919 211.794 189.84 211.761 189.76C211.737 189.703 211.704 189.647 211.686 189.591C211.662 189.525 211.648 189.459 211.629 189.394C211.611 189.323 211.587 189.258 211.573 189.187C211.564 189.126 211.559 189.065 211.55 189.004C211.54 188.924 211.526 188.84 211.526 188.76L211.564 202.139C211.564 202.158 211.564 202.177 211.564 202.2C211.564 202.261 211.578 202.322 211.587 202.383C211.592 202.444 211.597 202.505 211.611 202.566C211.611 202.576 211.611 202.585 211.615 202.594C211.629 202.656 211.648 202.717 211.667 202.773C211.686 202.839 211.7 202.904 211.723 202.97C211.728 202.979 211.728 202.989 211.733 202.994C211.751 203.04 211.78 203.092 211.803 203.139C211.841 203.219 211.874 203.299 211.916 203.378C211.92 203.388 211.925 203.402 211.93 203.411C211.953 203.449 211.981 203.486 212.005 203.524C212.061 203.618 212.122 203.712 212.193 203.806C212.207 203.824 212.216 203.843 212.23 203.862C212.254 203.89 212.282 203.914 212.305 203.942C212.404 204.064 212.517 204.181 212.634 204.299C212.662 204.327 212.681 204.355 212.709 204.383C212.728 204.402 212.751 204.421 212.775 204.435C212.855 204.505 212.944 204.576 213.028 204.646C213.094 204.698 213.16 204.754 213.235 204.806C213.329 204.876 213.437 204.942 213.54 205.007C213.601 205.045 213.657 205.087 213.718 205.129C213.751 205.148 213.784 205.167 213.817 205.191L252.237 227.517C252.556 227.7 252.894 227.86 253.246 228.006C253.354 228.053 253.466 228.09 253.574 228.128C253.72 228.179 253.856 228.245 254.006 228.292C254.091 228.32 254.18 228.33 254.265 228.358C254.532 228.438 254.804 228.503 255.081 228.56C255.199 228.583 255.311 228.625 255.433 228.649C255.518 228.663 255.607 228.672 255.692 228.686C255.804 228.705 255.912 228.719 256.025 228.733C256.138 228.747 256.255 228.771 256.368 228.78C256.621 228.804 256.875 228.822 257.128 228.832C257.133 228.832 257.138 228.832 257.142 228.832H257.147C257.377 228.841 257.607 228.841 257.832 228.837C258.02 228.832 258.203 228.822 258.386 228.808C258.405 228.808 258.419 228.808 258.438 228.804C258.447 228.804 258.457 228.804 258.471 228.804C258.677 228.785 258.879 228.766 259.081 228.738C259.269 228.71 259.457 228.677 259.64 228.639C259.649 228.639 259.658 228.635 259.663 228.635C259.668 228.635 259.673 228.635 259.677 228.63C259.889 228.588 260.095 228.536 260.302 228.48C260.428 228.442 260.55 228.395 260.672 228.353C260.734 228.33 260.799 228.311 260.86 228.287C260.903 228.273 260.949 228.259 260.987 228.245C261.278 228.132 261.55 228.001 261.804 227.855L261.752 214.457Z" fill="#AD31D5"/>
<path d="M277.554 146.036L248.448 162.842C248.396 162.87 248.335 162.894 248.274 162.908C248.27 162.908 248.27 162.908 248.265 162.908C248.204 162.922 248.133 162.931 248.068 162.931H248.063C247.997 162.931 247.936 162.922 247.875 162.913C247.866 162.913 247.856 162.908 247.852 162.908C247.791 162.894 247.734 162.875 247.687 162.847C247.636 162.814 247.594 162.781 247.57 162.744C247.57 162.744 247.57 162.739 247.565 162.739C247.542 162.701 247.528 162.659 247.528 162.622L247.542 167.077V167.081C247.542 167.091 247.542 167.105 247.547 167.114C247.547 167.124 247.551 167.133 247.556 167.147C247.561 167.156 247.565 167.166 247.57 167.18C247.575 167.185 247.579 167.194 247.584 167.199C247.584 167.199 247.584 167.203 247.589 167.203C247.594 167.208 247.594 167.213 247.598 167.213C247.608 167.227 247.622 167.236 247.631 167.25C247.65 167.269 247.673 167.288 247.702 167.302L247.706 167.307C247.739 167.325 247.781 167.344 247.824 167.358C247.838 167.363 247.856 167.368 247.871 167.372C247.88 167.372 247.889 167.377 247.894 167.377C247.903 167.377 247.913 167.382 247.922 167.382C247.946 167.387 247.969 167.391 247.993 167.391C248.011 167.391 248.035 167.396 248.054 167.396C248.063 167.396 248.072 167.396 248.082 167.396C248.086 167.396 248.086 167.396 248.091 167.396C248.096 167.396 248.105 167.396 248.11 167.396C248.129 167.396 248.147 167.396 248.166 167.391C248.185 167.391 248.204 167.387 248.218 167.387C248.237 167.382 248.255 167.382 248.274 167.377C248.279 167.377 248.284 167.372 248.288 167.372H248.293C248.302 167.368 248.317 167.368 248.326 167.363C248.349 167.358 248.368 167.349 248.392 167.34C248.42 167.33 248.443 167.316 248.467 167.302L277.572 150.496L277.554 146.036Z" fill="url(#paint9_linear_20_1467)"/>
<path d="M324.954 171.062C324.954 171.048 324.954 171.029 324.954 171.015C324.954 170.968 324.949 170.917 324.944 170.87C324.94 170.823 324.93 170.781 324.921 170.734C324.902 170.63 324.869 170.527 324.832 170.424C324.822 170.396 324.803 170.363 324.789 170.335C324.775 170.306 324.761 170.274 324.747 170.245C324.724 170.194 324.705 170.147 324.677 170.095C324.611 169.973 324.527 169.856 324.437 169.738L324.433 169.734C324.423 169.72 324.409 169.71 324.4 169.701C324.296 169.574 324.184 169.447 324.052 169.325C324.015 169.292 323.973 169.26 323.935 169.227C323.902 169.198 323.865 169.17 323.832 169.137C323.658 168.997 323.47 168.86 323.259 168.729C323.231 168.71 323.198 168.696 323.17 168.677L284.783 146.369C284.534 146.224 284.267 146.097 283.99 145.984C283.905 145.947 283.816 145.919 283.727 145.886C283.605 145.839 283.492 145.792 283.365 145.75C283.309 145.731 283.243 145.721 283.187 145.707C282.966 145.642 282.741 145.59 282.511 145.538C282.422 145.52 282.333 145.487 282.239 145.473C282.187 145.463 282.14 145.459 282.089 145.454C282.004 145.44 281.92 145.43 281.835 145.421C281.727 145.407 281.619 145.388 281.511 145.374C281.342 145.355 281.173 145.346 281.004 145.337C280.981 145.337 280.957 145.337 280.934 145.332C280.765 145.327 280.596 145.327 280.427 145.332C280.314 145.337 280.201 145.341 280.089 145.351C280.065 145.351 280.037 145.351 280.014 145.355C279.995 145.355 279.976 145.355 279.957 145.36C279.807 145.374 279.657 145.388 279.511 145.412C279.394 145.43 279.277 145.449 279.159 145.473C279.145 145.477 279.126 145.477 279.112 145.482C279.103 145.482 279.089 145.487 279.079 145.487C278.929 145.52 278.779 145.552 278.638 145.595C278.549 145.618 278.469 145.651 278.385 145.679C278.338 145.693 278.291 145.707 278.248 145.726C278.216 145.74 278.178 145.75 278.145 145.759C277.939 145.839 277.741 145.933 277.558 146.041L277.572 150.496C277.784 150.374 278.014 150.27 278.258 150.181C278.305 150.162 278.352 150.148 278.394 150.134C278.629 150.054 278.868 149.984 279.126 149.932C279.14 149.928 279.159 149.928 279.173 149.923C279.45 149.871 279.737 149.829 280.028 149.81C280.051 149.81 280.079 149.806 280.103 149.806C280.403 149.787 280.708 149.777 281.018 149.792C281.29 149.806 281.572 149.834 281.849 149.871C281.934 149.881 282.018 149.895 282.103 149.909C282.243 149.932 282.384 149.965 282.525 149.998C282.75 150.045 282.976 150.101 283.201 150.167C283.384 150.223 283.563 150.28 283.741 150.346C283.83 150.378 283.919 150.407 284.004 150.444C284.281 150.557 284.548 150.684 284.797 150.829L323.184 173.137C323.433 173.283 323.649 173.438 323.846 173.597C323.883 173.625 323.916 173.654 323.949 173.686C324.127 173.841 324.282 173.996 324.414 174.156C324.423 174.17 324.437 174.179 324.447 174.189C324.578 174.358 324.681 174.531 324.761 174.7C324.775 174.729 324.789 174.761 324.803 174.79C324.879 174.968 324.935 175.146 324.954 175.32C324.963 175.386 324.963 175.452 324.963 175.513L324.954 171.062Z" fill="#AD31D5"/>
<path d="M326.043 171.057C326.043 171.372 325.972 171.682 325.832 171.978C325.738 172.175 325.606 172.367 325.447 172.55C325.287 172.733 325.09 172.912 324.86 173.076C324.747 173.156 324.62 173.236 324.489 173.316L295.383 190.122C295.332 190.15 295.271 190.173 295.21 190.187H295.205C295.144 190.202 295.073 190.211 295.008 190.211C295.003 190.211 295.003 190.211 294.998 190.211C294.933 190.211 294.872 190.202 294.811 190.192C294.801 190.192 294.792 190.187 294.787 190.187C294.726 190.173 294.67 190.155 294.623 190.126C294.571 190.094 294.529 190.061 294.505 190.023C294.505 190.023 294.505 190.018 294.501 190.018C294.477 189.981 294.463 189.943 294.463 189.901L294.477 194.356V194.361C294.477 194.37 294.477 194.384 294.482 194.394C294.482 194.403 294.487 194.412 294.491 194.427C294.496 194.436 294.501 194.445 294.505 194.459C294.51 194.464 294.515 194.473 294.519 194.478C294.519 194.478 294.519 194.483 294.524 194.483C294.529 194.488 294.529 194.492 294.534 194.492C294.543 194.506 294.557 194.516 294.566 194.53C294.585 194.549 294.609 194.567 294.637 194.581L294.642 194.586C294.674 194.605 294.717 194.624 294.759 194.638C294.773 194.642 294.792 194.647 294.806 194.652C294.815 194.652 294.825 194.657 294.829 194.657C294.839 194.657 294.848 194.661 294.857 194.661C294.881 194.666 294.904 194.671 294.928 194.671C294.947 194.671 294.97 194.675 294.989 194.675C294.998 194.675 295.008 194.675 295.017 194.675C295.022 194.675 295.022 194.675 295.026 194.675C295.031 194.675 295.041 194.675 295.045 194.675C295.064 194.675 295.083 194.675 295.102 194.671C295.12 194.671 295.139 194.666 295.153 194.666C295.172 194.661 295.191 194.661 295.21 194.657C295.214 194.657 295.219 194.652 295.224 194.652C295.228 194.652 295.228 194.652 295.233 194.652C295.242 194.647 295.257 194.647 295.266 194.642C295.289 194.638 295.308 194.628 295.332 194.619C295.36 194.61 295.383 194.596 295.407 194.581L324.512 177.775C325.564 177.17 326.066 176.353 326.066 175.517L326.043 171.057Z" fill="url(#paint10_linear_20_1467)"/>
<path d="M326.029 170.818C325.921 169.898 325.217 168.973 323.944 168.232L285.558 145.923C284.29 145.186 282.685 144.769 281.098 144.708C279.511 144.642 277.939 144.923 276.788 145.59L247.683 162.396C247.472 162.518 247.471 162.72 247.687 162.842C247.894 162.964 248.241 162.964 248.453 162.842L277.558 146.036C278.46 145.515 279.699 145.28 281.013 145.337C282.323 145.393 283.699 145.74 284.788 146.374L323.174 168.682C324.264 169.316 324.855 170.114 324.949 170.87C325.033 171.63 324.63 172.349 323.728 172.87L294.623 189.676C294.411 189.798 294.411 190 294.627 190.122C294.834 190.244 295.181 190.244 295.393 190.122L324.498 173.316C325.644 172.649 326.137 171.738 326.029 170.818Z" fill="#FFD0E5"/>
<path d="M210.77 251.014L210.761 253.553L210.658 289.236L204.372 285.607L201.428 283.908L197.325 281.542L194.405 279.852L190.382 277.533L187.453 275.843L184.331 274.04L181.12 272.186L173.543 267.815L169.379 265.407L152.019 255.384L152.122 219.711L152.132 217.157L178.449 232.353L181.688 234.222L185.974 236.696L188.899 238.395L189.04 238.47L191.518 239.893L192.917 240.7L195.861 242.399L199.954 244.765L202.888 246.465L210.77 251.014Z" fill="#10054D"/>
<path d="M244.758 231.26L244.65 269.482L210.658 289.236L210.766 251.009L244.758 231.26Z" fill="url(#paint11_linear_20_1467)"/>
<path d="M188.899 238.395L185.974 236.695L187.448 275.843L190.382 277.533L188.899 238.395ZM202.889 246.465L199.954 244.765L201.429 283.912L204.372 285.612L202.889 246.465ZM195.861 242.399L192.917 240.7L194.401 279.856L197.326 281.546L195.861 242.399Z" fill="#FFB7D4"/>
<path d="M246.026 228.917L211.104 249.211L209.738 248.423L207.221 246.972L202.776 244.404L200.259 242.954V242.944L195.814 240.386L193.288 238.926L192.565 238.508L190.077 237.071L182.782 232.856L179.515 230.978L150.869 214.439L185.8 194.136L205.531 205.534L208.057 206.994L210.315 208.294L212.503 209.557L215.028 211.012L219.474 213.585L221.99 215.04L223.394 215.848L246.026 228.917Z" fill="url(#paint12_linear_20_1467)"/>
<path d="M246.026 228.917L246.016 233.457L211.09 253.751L211.104 249.211L246.026 228.917Z" fill="url(#paint13_linear_20_1467)"/>
<path d="M211.104 249.211L211.09 253.751L150.86 218.974L150.874 214.435L211.104 249.211Z" fill="#AD31D5"/>
<path d="M212.507 209.567L200.255 242.958L202.771 244.404L215.024 211.022L212.507 209.567ZM205.536 205.539L193.293 238.931V238.94L195.809 240.386L208.062 206.994L205.536 205.539ZM186.322 234.907L198.565 201.516L201.091 202.971L188.847 236.363L186.322 234.907Z" fill="#FFB7D4"/>
<path d="M293.647 180.667C293.637 180.724 293.632 180.775 293.623 180.831C293.557 181.193 293.468 181.559 293.351 181.916C293.332 181.972 293.318 182.024 293.299 182.08C293.177 182.437 293.027 182.794 292.848 183.146C292.82 183.202 292.792 183.259 292.759 183.315C292.571 183.672 292.36 184.024 292.121 184.371C292.083 184.423 292.046 184.474 292.008 184.521C291.783 184.836 291.534 185.146 291.262 185.456C291.21 185.512 291.163 185.573 291.111 185.629C290.802 185.967 290.459 186.301 290.093 186.629C290.041 186.676 289.985 186.723 289.933 186.77C289.567 187.085 289.177 187.394 288.76 187.695C288.699 187.737 288.638 187.779 288.576 187.822C288.126 188.141 287.652 188.451 287.14 188.746C286.647 189.033 286.131 189.296 285.605 189.554C285.469 189.62 285.328 189.685 285.187 189.751C284.713 189.972 284.229 190.178 283.732 190.371C283.666 190.394 283.605 190.422 283.539 190.45C283.009 190.652 282.46 190.835 281.906 191.009C281.521 191.131 281.131 191.234 280.737 191.342C280.436 191.422 280.141 191.511 279.84 191.582C279.427 191.68 279.009 191.765 278.587 191.849C278.277 191.91 277.976 191.981 277.667 192.037C277.54 192.061 277.408 192.079 277.282 192.098C276.761 192.183 276.235 192.258 275.709 192.319C275.554 192.338 275.404 192.356 275.249 192.375C274.944 192.408 274.639 192.427 274.333 192.45C273.822 192.493 273.31 192.53 272.798 192.554C272.47 192.568 272.141 192.572 271.813 192.582C271.399 192.591 270.982 192.591 270.569 192.586C270.221 192.582 269.874 192.572 269.526 192.558C269.141 192.544 268.756 192.525 268.376 192.497C268.024 192.474 267.672 192.441 267.325 192.408C266.944 192.37 266.569 192.328 266.189 192.281C265.846 192.239 265.508 192.192 265.17 192.136C264.766 192.075 264.362 192.004 263.963 191.925C263.649 191.863 263.334 191.802 263.02 191.732C262.541 191.629 262.072 191.511 261.607 191.385C261.306 191.305 261.001 191.23 260.705 191.141C260.546 191.094 260.386 191.042 260.222 190.99C259.752 190.845 259.292 190.685 258.842 190.516C258.71 190.469 258.579 190.422 258.447 190.371C258.034 190.211 257.635 190.033 257.241 189.859C257.044 189.774 256.842 189.695 256.654 189.601C256.081 189.328 255.523 189.037 254.988 188.732C250.509 186.146 248.27 182.747 248.279 179.357L248.27 183.141C248.26 186.535 250.5 189.929 254.978 192.516C255.513 192.826 256.072 193.112 256.645 193.384C256.837 193.474 257.039 193.553 257.232 193.638C257.57 193.788 257.908 193.948 258.26 194.084C258.321 194.107 258.382 194.126 258.443 194.15C258.574 194.201 258.706 194.244 258.837 194.295C259.292 194.464 259.752 194.619 260.222 194.769C260.382 194.821 260.541 194.873 260.701 194.92C260.809 194.952 260.917 194.99 261.025 195.018C261.217 195.074 261.414 195.112 261.607 195.159C262.072 195.281 262.541 195.398 263.02 195.506C263.147 195.535 263.269 195.572 263.4 195.6C263.588 195.638 263.776 195.661 263.963 195.699C264.362 195.774 264.766 195.844 265.17 195.91C265.334 195.934 265.489 195.971 265.653 195.995C265.827 196.018 266.01 196.032 266.184 196.056C266.559 196.103 266.94 196.145 267.32 196.182C267.503 196.201 267.681 196.229 267.865 196.243C268.034 196.258 268.202 196.258 268.371 196.272C268.756 196.3 269.137 196.319 269.522 196.333C269.714 196.342 269.907 196.361 270.104 196.365C270.259 196.37 270.409 196.361 270.564 196.365C270.977 196.37 271.395 196.365 271.808 196.361C272.014 196.356 272.226 196.365 272.432 196.356C272.554 196.351 272.676 196.337 272.798 196.333C273.315 196.309 273.822 196.272 274.333 196.229C274.54 196.211 274.751 196.211 274.953 196.187C275.052 196.178 275.146 196.164 275.244 196.154C275.399 196.135 275.549 196.117 275.7 196.098C276.23 196.037 276.751 195.962 277.272 195.877C277.399 195.858 277.53 195.84 277.657 195.816C277.718 195.807 277.784 195.797 277.845 195.788C278.094 195.741 278.333 195.68 278.582 195.633C279 195.549 279.422 195.464 279.831 195.366C280.136 195.29 280.432 195.206 280.727 195.126C281.117 195.018 281.511 194.915 281.892 194.793C281.976 194.765 282.061 194.746 282.145 194.722C282.615 194.572 283.07 194.408 283.525 194.234C283.591 194.211 283.652 194.183 283.718 194.154C284.215 193.962 284.699 193.751 285.178 193.53C285.319 193.464 285.455 193.399 285.595 193.333C286.121 193.079 286.638 192.812 287.131 192.525C287.224 192.469 287.318 192.417 287.408 192.361C287.816 192.117 288.201 191.859 288.567 191.601C288.628 191.558 288.689 191.516 288.75 191.474C289.168 191.173 289.558 190.864 289.924 190.549C289.975 190.502 290.032 190.455 290.083 190.408C290.149 190.347 290.22 190.291 290.285 190.234C290.576 189.967 290.849 189.69 291.102 189.408C291.154 189.352 291.201 189.291 291.252 189.235C291.403 189.066 291.557 188.892 291.694 188.718C291.802 188.582 291.9 188.441 291.999 188.3C292.036 188.249 292.074 188.197 292.111 188.15C292.29 187.887 292.459 187.629 292.609 187.361C292.661 187.272 292.698 187.183 292.745 187.094C292.773 187.038 292.802 186.981 292.83 186.925C292.971 186.639 293.102 186.357 293.21 186.066C293.238 185.995 293.257 185.925 293.28 185.855C293.299 185.798 293.318 185.747 293.337 185.69C293.435 185.39 293.52 185.089 293.581 184.784C293.595 184.723 293.6 184.662 293.609 184.606C293.618 184.549 293.628 184.498 293.632 184.442C293.684 184.122 293.717 183.798 293.726 183.479C293.726 183.413 293.731 183.348 293.731 183.277L293.74 179.494C293.745 179.893 293.708 180.278 293.647 180.667Z" fill="url(#paint14_linear_20_1467)"/>
<path d="M287.032 170.124C278.131 164.983 263.733 164.983 254.884 170.124C246.035 175.269 246.087 183.606 254.987 188.747C263.893 193.892 278.291 193.892 287.14 188.752C295.989 183.606 295.937 175.264 287.032 170.124Z" fill="url(#paint15_linear_20_1467)"/>
<path d="M272.667 168.899C272.554 168.861 272.414 168.88 272.343 168.946L271.32 169.946C270.77 170.481 270.658 171.129 271.015 171.716L271.381 172.317L256.959 181.987C256.88 182.039 256.884 182.123 256.973 182.17L264.912 186.752C265.006 186.804 265.151 186.804 265.245 186.752L268.7 184.757L273.052 182.245L277.399 179.734L280.84 177.748L282.145 177.776C282.737 177.79 283.239 177.992 283.46 178.311C283.676 178.631 283.549 178.978 283.131 179.222L269.034 187.362C268.94 187.414 268.94 187.503 269.034 187.555C269.127 187.606 269.273 187.606 269.367 187.555L270.479 186.912C270.395 187.151 270.512 187.414 270.836 187.597C271.348 187.893 272.184 187.893 272.695 187.597C273.207 187.301 273.207 186.818 272.695 186.522C272.371 186.334 271.921 186.269 271.503 186.315L281.511 180.537C281.427 180.776 281.544 181.039 281.868 181.222C282.38 181.518 283.216 181.518 283.727 181.222C284.239 180.926 284.239 180.443 283.727 180.147C283.403 179.959 282.953 179.893 282.535 179.94L283.464 179.405C284.018 179.086 284.183 178.626 283.896 178.203C283.61 177.781 282.948 177.513 282.164 177.495L280.85 177.466L271.841 172.265L271.447 171.617C271.132 171.105 271.231 170.542 271.709 170.077L272.737 169.077C272.817 169.021 272.78 168.941 272.667 168.899ZM268.207 184.663L265.081 186.466L262.565 185.01L265.691 183.208L268.207 184.663ZM265.358 183.02L262.231 184.823L259.72 183.372L262.846 181.569L265.358 183.02ZM262.513 181.377L259.386 183.18L257.462 182.067L260.353 180.128L262.513 181.377ZM272.564 182.151L268.541 184.475L266.024 183.02L270.048 180.696L272.564 182.151ZM269.714 180.504L265.691 182.827L263.18 181.377L267.203 179.053L269.714 180.504ZM266.865 178.861L262.842 181.184L260.659 179.926L264.381 177.429L266.865 178.861ZM276.916 179.635L272.897 181.954L270.381 180.499L274.399 178.18L276.916 179.635ZM274.061 177.992L270.043 180.311L267.531 178.861L271.55 176.542L274.061 177.992ZM271.216 176.349L267.198 178.668L264.691 177.222L268.409 174.73L271.216 176.349ZM280.427 177.607L277.244 179.447L274.728 177.992L277.911 176.152L280.427 177.607ZM277.577 175.96L274.395 177.8L271.883 176.349L275.066 174.509L277.577 175.96ZM274.733 174.316L271.55 176.157L268.719 174.523L271.667 172.547L274.733 174.316ZM272.376 186.715C272.705 186.907 272.705 187.212 272.376 187.405C272.047 187.592 271.512 187.592 271.184 187.405C270.855 187.217 270.855 186.907 271.184 186.715C271.508 186.527 272.047 186.527 272.376 186.715ZM283.408 180.344C283.737 180.537 283.737 180.842 283.408 181.034C283.079 181.222 282.544 181.222 282.216 181.034C281.887 180.846 281.887 180.537 282.216 180.344C282.54 180.156 283.075 180.156 283.408 180.344Z" fill="#FFB7D4"/>
<path d="M141.625 149.106L146.001 177.147L167.558 185.202L172.107 186.902V184.306L141.625 149.106Z" fill="url(#paint16_linear_20_1467)"/>
<path d="M217.835 157.909V160.491C217.835 163.251 220.826 164.974 223.215 163.594L223.666 163.336C224.774 162.697 225.459 161.514 225.459 160.233V153.506L217.835 157.909Z" fill="#FFB7D4"/>
<path d="M202.588 166.707V169.298C202.588 172.058 205.578 173.781 207.968 172.401L208.418 172.143C209.526 171.504 210.212 170.321 210.212 169.04V162.312L202.588 166.707Z" fill="#FFB7D4"/>
<path d="M194.968 171.11L187.349 175.514V178.105C187.349 180.865 190.335 182.588 192.725 181.208L193.175 180.95C194.283 180.312 194.968 179.124 194.968 177.847V171.11Z" fill="#FFB7D4"/>
<path d="M172.107 184.306V186.902C172.107 189.662 175.092 191.385 177.482 190.005L177.937 189.742C179.05 189.099 179.73 187.916 179.73 186.635L179.726 179.912L172.107 184.306Z" fill="#FFB7D4"/>
<path d="M194.969 171.109V173.701C194.969 176.461 197.959 178.184 200.348 176.804L200.799 176.546C201.907 175.907 202.592 174.724 202.592 173.443V166.706L194.969 171.109Z" fill="white"/>
<path d="M179.726 179.912L179.73 182.504C179.735 185.264 182.721 186.982 185.11 185.602L185.565 185.339C186.673 184.701 187.359 183.518 187.359 182.236V175.509L179.726 179.912Z" fill="white"/>
<path d="M210.207 162.313V164.899C210.207 167.66 213.192 169.382 215.582 168.002L216.042 167.739C217.15 167.101 217.835 165.918 217.835 164.636V157.914L210.207 162.308V162.313Z" fill="white"/>
<path d="M179.726 127.108L210.207 162.303L217.835 157.909L187.345 122.705L179.726 127.108Z" fill="#FFB5FF"/>
<path d="M164.488 135.902L194.969 171.11L202.588 166.707L172.107 131.503L164.488 135.902Z" fill="#FFB5FF"/>
<path d="M149.24 144.708L179.726 179.912L187.354 175.508L156.868 140.305L149.24 144.708Z" fill="#FFB5FF"/>
<path d="M141.625 149.107L172.107 184.306L179.726 179.912L149.24 144.708L141.625 149.107Z" fill="url(#paint17_linear_20_1467)"/>
<path d="M156.868 140.305L187.354 175.509L194.968 171.11L164.487 135.901L156.868 140.305Z" fill="url(#paint18_linear_20_1467)"/>
<path d="M172.106 131.502L202.588 166.706L210.207 162.312V162.303L179.726 127.108L172.106 131.502Z" fill="url(#paint19_linear_20_1467)"/>
<path d="M187.345 122.705L217.835 157.909L225.454 153.51L194.969 118.302L187.345 122.705Z" fill="url(#paint20_linear_20_1467)"/>
<path d="M346.013 261.882C359.145 261.882 369.791 255.736 369.791 248.155C369.791 240.574 359.145 234.429 346.013 234.429C332.881 234.429 322.236 240.574 322.236 248.155C322.236 255.736 332.881 261.882 346.013 261.882Z" fill="url(#paint21_radial_20_1467)"/>
<path d="M365.026 91.7356C355.412 86.1821 339.864 86.1821 330.324 91.7262C324.381 95.1814 322.156 99.9744 323.64 104.439H323.555L330.39 246.883H330.395C330.39 249.169 331.892 251.46 334.916 253.206C340.91 256.666 350.619 256.666 356.585 253.202C359.543 251.484 361.022 249.23 361.031 246.972H361.036L371.636 105.04C373.471 100.411 371.27 95.341 365.026 91.7356Z" fill="url(#paint22_linear_20_1467)"/>
<path d="M343.572 239.832C343.577 241.738 342.319 243.644 339.802 245.099L277.544 281.045L277.587 296.18L339.845 260.234C342.361 258.779 343.619 256.873 343.614 254.967L343.572 239.832Z" fill="url(#paint23_linear_20_1467)"/>
<path d="M277.544 281.044C277.244 281.218 276.929 281.377 276.61 281.532C276.502 281.584 276.39 281.626 276.282 281.678C276.07 281.772 275.859 281.866 275.638 281.95C275.197 282.124 274.737 282.274 274.272 282.41C274.127 282.452 273.981 282.49 273.836 282.528C273.573 282.598 273.31 282.664 273.042 282.72C272.869 282.758 272.69 282.795 272.512 282.828C272.287 282.87 272.061 282.913 271.836 282.945C271.648 282.974 271.456 283.002 271.263 283.025C271.052 283.053 270.841 283.077 270.625 283.096C270.428 283.114 270.23 283.133 270.033 283.143C269.817 283.157 269.601 283.171 269.385 283.175C269.193 283.185 268.996 283.19 268.803 283.19C268.569 283.194 268.339 283.189 268.104 283.185C267.921 283.18 267.733 283.175 267.55 283.171C267.263 283.157 266.977 283.138 266.691 283.114C266.541 283.1 266.386 283.091 266.235 283.077C265.747 283.025 265.264 282.959 264.785 282.875C264.621 282.847 264.461 282.809 264.301 282.776C264.067 282.729 263.827 282.682 263.597 282.626C263.428 282.584 263.264 282.537 263.1 282.49C262.879 282.429 262.658 282.368 262.442 282.302C262.32 282.265 262.198 282.218 262.076 282.176C261.733 282.058 261.4 281.931 261.071 281.795C260.949 281.744 260.827 281.692 260.705 281.64C260.288 281.453 259.884 281.255 259.499 281.03C259.325 280.931 259.175 280.823 259.015 280.72C258.86 280.617 258.701 280.518 258.555 280.415C258.429 280.321 258.316 280.227 258.198 280.133C258.067 280.025 257.931 279.922 257.809 279.809C257.734 279.744 257.668 279.673 257.598 279.603C257.4 279.415 257.222 279.218 257.058 279.021C256.987 278.936 256.917 278.852 256.851 278.763C256.743 278.617 256.645 278.467 256.551 278.317C256.494 278.223 256.429 278.129 256.382 278.035C256.311 277.904 256.255 277.772 256.194 277.636C256.147 277.533 256.1 277.429 256.063 277.326C256.016 277.199 255.987 277.073 255.955 276.946C255.926 276.838 255.893 276.73 255.875 276.622C255.851 276.491 255.842 276.354 255.828 276.218C255.818 276.091 255.795 275.969 255.795 275.843L255.837 290.978C255.837 291.015 255.837 291.053 255.837 291.09C255.842 291.179 255.861 291.264 255.865 291.348C255.879 291.485 255.889 291.616 255.912 291.752C255.917 291.776 255.917 291.799 255.922 291.823C255.94 291.907 255.973 291.992 255.997 292.081C256.03 292.208 256.063 292.334 256.105 292.461C256.114 292.489 256.119 292.513 256.128 292.541C256.156 292.621 256.203 292.696 256.236 292.771C256.293 292.902 256.354 293.038 256.424 293.17C256.443 293.203 256.452 293.236 256.471 293.269C256.508 293.33 256.56 293.391 256.598 293.456C256.692 293.607 256.785 293.757 256.898 293.902C256.931 293.945 256.954 293.991 256.987 294.034C257.02 294.076 257.072 294.118 257.105 294.16C257.269 294.358 257.447 294.55 257.645 294.743C257.691 294.79 257.729 294.836 257.776 294.883C257.799 294.907 257.828 294.926 257.856 294.949C257.978 295.057 258.114 295.165 258.245 295.273C258.363 295.367 258.475 295.461 258.602 295.555C258.748 295.658 258.907 295.761 259.062 295.86C259.175 295.93 259.274 296.01 259.391 296.081C259.443 296.113 259.494 296.142 259.546 296.174C259.926 296.395 260.334 296.597 260.752 296.785C260.87 296.841 260.992 296.888 261.114 296.94C261.442 297.076 261.776 297.202 262.118 297.32C262.193 297.348 262.269 297.381 262.344 297.404C262.391 297.418 262.438 297.428 262.485 297.447C262.7 297.512 262.921 297.573 263.142 297.634C263.306 297.681 263.47 297.728 263.644 297.771C263.879 297.827 264.118 297.874 264.353 297.921C264.489 297.949 264.625 297.982 264.761 298.01C264.785 298.015 264.808 298.015 264.832 298.019C265.311 298.104 265.794 298.17 266.282 298.221C266.32 298.226 266.353 298.231 266.39 298.235C266.508 298.245 266.62 298.249 266.738 298.259C267.024 298.282 267.31 298.306 267.597 298.315C267.667 298.32 267.733 298.324 267.803 298.329C267.921 298.334 268.033 298.329 268.151 298.329C268.385 298.334 268.616 298.334 268.85 298.334C268.939 298.334 269.024 298.339 269.113 298.334C269.221 298.329 269.329 298.32 269.437 298.315C269.653 298.306 269.869 298.296 270.085 298.282C270.179 298.278 270.277 298.273 270.371 298.268C270.475 298.259 270.573 298.245 270.672 298.235C270.883 298.216 271.099 298.193 271.31 298.165C271.409 298.151 271.512 298.146 271.611 298.132C271.7 298.118 271.789 298.099 271.878 298.085C272.104 298.047 272.329 298.01 272.554 297.968C272.662 297.949 272.77 297.935 272.873 297.911C272.944 297.897 273.014 297.874 273.085 297.86C273.352 297.803 273.615 297.733 273.873 297.667C273.981 297.639 274.094 297.616 274.202 297.587C274.239 297.578 274.272 297.559 274.31 297.55C274.779 297.414 275.235 297.259 275.681 297.09C275.704 297.08 275.728 297.076 275.751 297.066C275.944 296.991 276.131 296.902 276.319 296.818C276.432 296.766 276.544 296.724 276.657 296.672C276.976 296.517 277.291 296.357 277.591 296.184L277.544 281.044Z" fill="#10054D"/>
<path d="M339.859 234.64C334.897 231.757 326.813 231.757 321.813 234.644L259.555 270.59C254.56 273.472 254.532 278.157 259.494 281.04C264.466 283.927 272.545 283.927 277.54 281.044L339.798 245.099C344.802 242.212 344.83 237.531 339.859 234.64Z" fill="url(#paint24_linear_20_1467)"/>
<path d="M291.562 260.196C293.515 261.323 293.252 262.896 290.9 264.257L289.684 264.961L291.759 266.158L288.915 267.801L280.474 262.928L284.539 260.581C286.882 259.22 289.609 259.065 291.562 260.196ZM288.694 261.853C288.079 261.497 287.332 261.497 286.549 261.952L285.511 262.553L287.487 263.694L288.525 263.093C289.309 262.637 289.309 262.206 288.694 261.853Z" fill="white"/>
<path d="M304.707 256.976L301.5 258.826L302.406 260.004L299.515 261.675L294.764 254.671L297.562 253.056L309.692 255.798L306.749 257.497L304.707 256.976ZM301.871 256.249L298.928 255.497L300.228 257.197L301.871 256.249Z" fill="white"/>
<path d="M314.654 249.394L317.715 251.164L314.87 252.807L311.772 251.019L303.247 249.77L306.251 248.038L310.894 248.728L309.711 246.043L312.462 244.456L314.654 249.394Z" fill="white"/>
<path d="M255.607 314.141C268.739 314.141 279.385 307.995 279.385 300.414C279.385 292.833 268.739 286.687 255.607 286.687C242.475 286.687 231.83 292.833 231.83 300.414C231.83 307.995 242.475 314.141 255.607 314.141Z" fill="url(#paint25_radial_20_1467)"/>
<path d="M274.62 143.994C265.005 138.441 249.457 138.441 239.918 143.985C233.975 147.44 231.75 152.233 233.233 156.698H233.149L239.984 299.142H239.989C239.984 301.428 241.486 303.719 244.509 305.465C250.504 308.925 260.212 308.925 266.179 305.461C269.137 303.742 270.615 301.489 270.625 299.231H270.629L281.23 157.298C283.07 152.665 280.868 147.6 274.62 143.994Z" fill="url(#paint26_linear_20_1467)"/>
<path d="M383.982 369.417L387.325 369.507L387.339 369.497L387.188 367.568L390.512 367.657L390.545 367.638L390.395 365.718L393.695 365.807L393.747 365.779L393.596 363.873L396.878 363.958L396.948 363.915L396.798 362.019L400.061 362.103L400.15 362.052L400 360.169L403.244 360.254L403.352 360.188L403.206 358.315L406.426 358.399L406.553 358.324L406.408 356.465L409.609 356.55L409.755 356.465L409.609 354.616L412.792 354.7L412.947 354.611L412.848 354.179C412.257 354.057 411.68 353.912 411.107 353.752C411.013 353.724 410.914 353.7 410.82 353.672C410.266 353.508 409.722 353.325 409.182 353.123C409.098 353.09 409.018 353.062 408.933 353.029C408.398 352.822 407.868 352.597 407.347 352.353C407.281 352.325 407.215 352.292 407.154 352.264C406.591 351.996 406.037 351.705 405.497 351.395C404.835 351.015 404.187 350.597 403.558 350.147C403.516 350.114 403.474 350.086 403.427 350.053C402.807 349.611 402.206 349.137 401.615 348.635C401.582 348.607 401.554 348.579 401.521 348.555C400.92 348.039 400.333 347.489 399.76 346.907C399.756 346.903 399.751 346.898 399.751 346.898C399.164 346.297 398.591 345.668 398.037 345.001C397.695 344.588 397.366 344.166 397.047 343.743C397 343.678 396.948 343.617 396.901 343.551C396.667 343.232 396.441 342.908 396.216 342.588C396.113 342.443 396.005 342.297 395.906 342.147C395.864 342.086 395.826 342.02 395.784 341.959C395.413 341.401 395.056 340.833 394.718 340.265C394.596 340.063 394.479 339.856 394.362 339.654C394.202 339.377 394.047 339.096 393.892 338.819C393.742 338.547 393.596 338.274 393.456 338.002C393.385 337.866 393.315 337.725 393.244 337.589C393.024 337.152 392.808 336.716 392.606 336.284C392.597 336.265 392.592 336.251 392.582 336.232C392.385 335.81 392.197 335.382 392.014 334.965C391.958 334.838 391.906 334.711 391.85 334.584C391.709 334.251 391.573 333.918 391.437 333.584C391.39 333.462 391.338 333.34 391.291 333.218C391.132 332.815 390.982 332.411 390.836 332.017C390.817 331.97 390.799 331.918 390.78 331.871C390.611 331.406 390.451 330.946 390.301 330.496C390.141 330.017 389.991 329.543 389.85 329.082C389.827 328.998 389.803 328.918 389.78 328.838C389.653 328.425 389.536 328.017 389.423 327.618C389.381 327.472 389.348 327.336 389.306 327.195C389.198 326.806 389.099 326.425 389.01 326.059C388.968 325.9 388.925 325.735 388.888 325.58C388.86 325.468 388.836 325.355 388.808 325.247C388.752 325.003 388.695 324.768 388.644 324.538C388.625 324.449 388.602 324.355 388.583 324.266C388.517 323.956 388.451 323.656 388.395 323.374C388.367 323.224 388.334 323.078 388.301 322.928C388.235 322.632 388.17 322.341 388.095 322.045C388.066 321.928 388.033 321.806 388.001 321.689C387.982 321.618 387.963 321.543 387.944 321.473C387.916 321.369 387.893 321.266 387.865 321.163C387.785 320.872 387.7 320.585 387.611 320.294C387.569 320.158 387.527 320.027 387.484 319.891C387.465 319.825 387.442 319.764 387.423 319.698C387.395 319.614 387.372 319.534 387.343 319.449C387.254 319.177 387.156 318.905 387.062 318.637C386.996 318.454 386.926 318.271 386.855 318.088C386.841 318.05 386.827 318.008 386.813 317.971C386.799 317.933 386.785 317.896 386.771 317.858C386.672 317.604 386.574 317.356 386.47 317.107C386.367 316.863 386.264 316.619 386.156 316.375C386.146 316.351 386.132 316.323 386.123 316.299C386.109 316.271 386.095 316.238 386.081 316.21C385.996 316.018 385.912 315.83 385.822 315.642C385.7 315.384 385.578 315.131 385.452 314.877C385.414 314.802 385.376 314.727 385.339 314.652C385.301 314.581 385.264 314.511 385.231 314.44C385.156 314.295 385.085 314.149 385.01 314.009C384.841 313.694 384.668 313.384 384.494 313.079C384.452 313.004 384.414 312.929 384.372 312.858C384.362 312.84 384.348 312.816 384.339 312.797C384.287 312.713 384.231 312.633 384.184 312.549C383.874 312.027 383.555 311.516 383.222 311.018C383.175 310.948 383.132 310.873 383.09 310.807C382.851 310.455 382.607 310.103 382.353 309.765C382.334 309.737 382.311 309.708 382.292 309.685C382.269 309.652 382.241 309.619 382.217 309.591C382.067 309.394 381.912 309.187 381.748 308.976C381.715 308.934 381.691 308.896 381.658 308.859C381.63 308.826 381.602 308.788 381.574 308.755C381.447 308.596 381.316 308.432 381.18 308.267C381.133 308.211 381.09 308.159 381.043 308.103C381.029 308.084 381.011 308.065 380.996 308.047C380.832 307.849 380.663 307.652 380.485 307.45C380.457 307.418 380.428 307.385 380.4 307.347C380.396 307.342 380.396 307.338 380.391 307.338C380.18 307.098 379.964 306.854 379.734 306.61C379.72 306.596 379.71 306.582 379.696 306.568C379.644 306.511 379.583 306.45 379.532 306.394C379.363 306.216 379.194 306.037 379.015 305.854C378.983 305.821 378.959 305.793 378.926 305.76C378.87 305.699 378.804 305.638 378.743 305.577C378.574 305.408 378.4 305.239 378.227 305.066C378.175 305.014 378.128 304.967 378.077 304.915C378.025 304.868 377.969 304.817 377.917 304.77C377.734 304.596 377.541 304.418 377.349 304.239C377.278 304.174 377.213 304.113 377.142 304.047C377.109 304.014 377.072 303.986 377.034 303.953C376.8 303.742 376.56 303.535 376.311 303.324C376.25 303.272 376.194 303.221 376.133 303.169C376.124 303.16 376.11 303.15 376.1 303.141C375.781 302.873 375.452 302.601 375.11 302.333C375.096 302.319 375.081 302.31 375.067 302.296C374.997 302.24 374.917 302.183 374.847 302.127C374.593 301.93 374.34 301.733 374.077 301.54C374.035 301.507 373.997 301.474 373.95 301.446C373.861 301.38 373.767 301.315 373.678 301.254C373.448 301.089 373.218 300.925 372.983 300.761C372.913 300.714 372.852 300.662 372.781 300.615C372.701 300.559 372.617 300.507 372.532 300.451C372.302 300.296 372.068 300.141 371.828 299.986C371.734 299.925 371.645 299.864 371.551 299.803C371.486 299.761 371.415 299.723 371.349 299.681C371.101 299.526 370.847 299.371 370.594 299.221C370.481 299.151 370.373 299.085 370.256 299.014C370.152 298.953 370.049 298.892 369.946 298.836C369.598 298.634 369.246 298.437 368.88 298.24C368.791 298.193 368.697 298.146 368.608 298.099C368.397 297.986 368.181 297.878 367.965 297.766C367.782 297.672 367.603 297.573 367.415 297.479C367.293 297.418 367.162 297.362 367.035 297.301C366.796 297.184 366.552 297.071 366.308 296.958C366.148 296.883 365.993 296.808 365.829 296.733C365.678 296.667 365.519 296.601 365.364 296.536C365.092 296.418 364.819 296.301 364.542 296.188C364.392 296.127 364.251 296.062 364.101 296.001C363.937 295.935 363.758 295.874 363.589 295.808C363.275 295.686 362.96 295.569 362.641 295.451C362.491 295.395 362.35 295.339 362.2 295.287C362.036 295.231 361.862 295.179 361.693 295.123C361.327 294.996 360.951 294.874 360.576 294.757C360.411 294.705 360.252 294.649 360.083 294.597C359.937 294.555 359.778 294.517 359.632 294.47C359.186 294.339 358.731 294.217 358.271 294.095C358.073 294.043 357.886 293.982 357.684 293.935C357.576 293.907 357.458 293.888 357.35 293.86C356.731 293.71 356.097 293.569 355.454 293.437C355.275 293.4 355.107 293.358 354.923 293.32C354.825 293.301 354.726 293.282 354.623 293.264C354.477 293.236 354.332 293.203 354.186 293.17C353.952 293.118 353.717 293.071 353.482 293.015C353.327 292.977 353.172 292.935 353.017 292.893C352.816 292.841 352.618 292.785 352.417 292.729C352.252 292.682 352.088 292.625 351.919 292.574C351.731 292.513 351.548 292.456 351.36 292.391C351.187 292.329 351.013 292.268 350.839 292.203C350.666 292.137 350.487 292.076 350.313 292.006C350.135 291.935 349.961 291.86 349.783 291.79C349.614 291.719 349.44 291.649 349.271 291.574C349.093 291.494 348.914 291.409 348.736 291.33C348.567 291.25 348.403 291.175 348.234 291.095C348.055 291.006 347.872 290.912 347.694 290.823C347.53 290.738 347.361 290.654 347.196 290.564C346.891 290.4 346.586 290.231 346.276 290.057C345.586 289.658 344.901 289.226 344.215 288.762C344.173 288.734 344.126 288.705 344.084 288.673C343.384 288.198 342.69 287.691 342.004 287.156C341.54 286.79 341.089 286.419 340.652 286.044C340.54 285.95 340.432 285.851 340.319 285.753C339.981 285.457 339.648 285.161 339.328 284.861C339.244 284.781 339.159 284.706 339.075 284.626C338.69 284.26 338.319 283.894 337.958 283.523C337.887 283.448 337.817 283.372 337.746 283.302C337.413 282.955 337.089 282.603 336.775 282.25C336.742 282.213 336.704 282.175 336.671 282.138C336.343 281.767 336.033 281.391 335.728 281.021C335.648 280.922 335.568 280.828 335.493 280.729C335.207 280.368 334.925 280.011 334.657 279.65C334.639 279.622 334.615 279.593 334.592 279.565C334.564 279.528 334.54 279.49 334.512 279.453C334.146 278.955 333.803 278.453 333.474 277.95C333.338 277.744 333.202 277.533 333.071 277.326C332.949 277.134 332.827 276.941 332.714 276.753C332.601 276.565 332.489 276.373 332.381 276.185C332.198 275.871 332.019 275.556 331.85 275.246C331.719 275.007 331.587 274.767 331.465 274.528C331.423 274.444 331.376 274.354 331.334 274.27C331.146 273.899 330.963 273.523 330.794 273.157C330.761 273.087 330.728 273.016 330.695 272.946C330.536 272.603 330.385 272.256 330.245 271.918C330.226 271.871 330.202 271.824 330.184 271.777C330.033 271.416 329.893 271.054 329.756 270.702C329.719 270.604 329.681 270.5 329.644 270.402C329.531 270.101 329.423 269.801 329.324 269.505C329.301 269.435 329.273 269.359 329.249 269.289C329.127 268.923 329.01 268.561 328.902 268.2C328.874 268.101 328.846 268.003 328.817 267.904C328.738 267.641 328.663 267.378 328.597 267.12C328.555 266.965 328.517 266.815 328.475 266.66C328.418 266.449 328.367 266.242 328.32 266.036C328.278 265.871 328.245 265.707 328.207 265.543C328.165 265.355 328.123 265.167 328.085 264.984C328.043 264.787 328.005 264.595 327.968 264.402C327.935 264.238 327.902 264.073 327.874 263.914C327.836 263.703 327.799 263.496 327.766 263.294C327.742 263.153 327.719 263.008 327.696 262.867C327.653 262.604 327.62 262.351 327.588 262.097C327.578 262.013 327.564 261.923 327.555 261.844C327.512 261.487 327.475 261.149 327.442 260.82C327.433 260.74 327.428 260.665 327.423 260.585C327.4 260.304 327.376 260.032 327.358 259.778C327.353 259.694 327.348 259.614 327.343 259.529C327.325 259.196 327.311 258.881 327.301 258.59C327.296 258.445 327.292 258.309 327.292 258.177C327.292 258.135 327.292 258.088 327.287 258.046C327.287 257.867 327.282 257.703 327.287 257.548C327.287 257.44 327.292 257.351 327.292 257.257C327.292 257.205 327.292 257.144 327.296 257.098C327.296 257.008 327.301 256.933 327.306 256.858C327.306 256.821 327.311 256.774 327.311 256.736C327.315 256.628 327.32 256.539 327.325 256.464C327.325 256.44 327.325 256.431 327.329 256.412C327.334 256.365 327.334 256.318 327.339 256.295C327.339 256.267 327.343 256.243 327.343 256.238L327.001 255.999L298.214 272.725C298.195 272.913 296.581 291.217 313.18 304.225C314.598 305.338 316.049 306.319 317.509 307.164C320.33 308.793 323.198 309.906 325.968 310.422C332.118 311.586 337.131 313.619 341.164 315.947C347.351 319.52 351.234 323.792 353.384 326.712C356.252 330.618 358.36 335.34 359.313 340.03C360.341 345.058 362.979 354.606 369.124 362.009C371.401 364.746 373.941 366.925 376.739 368.539C379.053 369.877 381.532 370.821 384.17 371.366L383.982 369.417Z" fill="url(#paint27_linear_20_1467)"/>
<path d="M336.132 286.683L316.997 297.733L318.189 298.419L337.324 287.373L336.132 286.683Z" fill="#153679"/>
<path d="M333.413 290.931L319.316 299.071L320.508 299.756L334.601 291.621L333.413 290.931Z" fill="#153679"/>
<path d="M337.601 291.189L321.63 300.409L322.823 301.095L338.793 291.875L337.601 291.189Z" fill="#153679"/>
<path d="M331.954 297.123L323.949 301.747L325.142 302.433L333.146 297.813L331.954 297.123Z" fill="#153679"/>
<path d="M351.159 295.362L332.024 306.408L333.216 307.094L352.351 296.048L351.159 295.362Z" fill="#153679"/>
<path d="M351.929 297.593L334.343 307.747L335.535 308.432L353.116 298.283L351.929 297.593Z" fill="#153679"/>
<path d="M348.624 302.175L336.662 309.085L337.854 309.775L349.816 302.865L348.624 302.175Z" fill="#153679"/>
<path d="M353.248 302.184L338.976 310.423L340.169 311.113L354.435 302.874L353.248 302.184Z" fill="#153679"/>
<path d="M354.642 304.053L341.295 311.761L342.488 312.451L355.834 304.743L354.642 304.053Z" fill="#153679"/>
<path d="M361.768 302.615L343.615 313.098L344.807 313.788L362.961 303.305L361.768 302.615Z" fill="#153679"/>
<path d="M388.034 353.78L376.067 360.691L377.26 361.381L389.226 354.47L388.034 353.78Z" fill="#153679"/>
<path d="M392.653 353.79L378.386 362.029L379.579 362.719L393.845 354.48L392.653 353.79Z" fill="#153679"/>
<path d="M394.052 355.658L380.706 363.367L381.893 364.057L395.244 356.348L394.052 355.658Z" fill="#153679"/>
<defs>
<linearGradient id="paint0_linear_20_1467" x1="390.848" y1="231.537" x2="55.5004" y2="148.446" gradientUnits="userSpaceOnUse">
<stop stop-color="#153679"/>
<stop offset="0.333333" stop-color="#10054D"/>
<stop offset="0.609375" stop-color="#A93DC4"/>
<stop offset="0.666667" stop-color="#11054E"/>
<stop offset="1" stop-color="#153679"/>
</linearGradient>
<linearGradient id="paint1_linear_20_1467" x1="194.831" y1="308.224" x2="67.714" y2="294.226" gradientUnits="userSpaceOnUse">
<stop stop-color="#FFB7D4"/>
<stop offset="1" stop-color="#D54FE1"/>
</linearGradient>
<linearGradient id="paint2_linear_20_1467" x1="191.536" y1="310.206" x2="151.079" y2="332.94" gradientUnits="userSpaceOnUse">
<stop stop-color="#FFB7D4"/>
<stop offset="1" stop-color="#AD31D5"/>
</linearGradient>
<linearGradient id="paint3_linear_20_1467" x1="226.831" y1="189.097" x2="123.389" y2="137.765" gradientUnits="userSpaceOnUse">
<stop stop-color="#FFB7D4"/>
<stop offset="1" stop-color="#AD31D5"/>
</linearGradient>
<linearGradient id="paint4_linear_20_1467" x1="320.163" y1="189.082" x2="281.782" y2="194.565" gradientUnits="userSpaceOnUse">
<stop stop-color="#FF97CC"/>
<stop offset="1" stop-color="#AD31D5"/>
</linearGradient>
<linearGradient id="paint5_linear_20_1467" x1="280.941" y1="185.155" x2="211.249" y2="212.965" gradientUnits="userSpaceOnUse">
<stop stop-color="#FFB7D4"/>
<stop offset="1" stop-color="#AD31D5"/>
</linearGradient>
<linearGradient id="paint6_linear_20_1467" x1="325.478" y1="208.737" x2="251.085" y2="238.423" gradientUnits="userSpaceOnUse">
<stop stop-color="#FFB7D4"/>
<stop offset="1" stop-color="#AD31D5"/>
</linearGradient>
<linearGradient id="paint7_linear_20_1467" x1="283.638" y1="144.261" x2="223.281" y2="194.432" gradientUnits="userSpaceOnUse">
<stop stop-color="#FFB7D4"/>
<stop offset="1" stop-color="#AD31D5"/>
</linearGradient>
<linearGradient id="paint8_linear_20_1467" x1="331.412" y1="184.3" x2="256.176" y2="219.729" gradientUnits="userSpaceOnUse">
<stop stop-color="#FFB7D4"/>
<stop offset="1" stop-color="#AD31D5"/>
</linearGradient>
<linearGradient id="paint9_linear_20_1467" x1="288.178" y1="146.008" x2="247.377" y2="163.291" gradientUnits="userSpaceOnUse">
<stop stop-color="#FFB7D4"/>
<stop offset="1" stop-color="#AD31D5"/>
</linearGradient>
<linearGradient id="paint10_linear_20_1467" x1="328.412" y1="172.586" x2="295.267" y2="191.871" gradientUnits="userSpaceOnUse">
<stop stop-color="#FFB7D4"/>
<stop offset="1" stop-color="#AD31D5"/>
</linearGradient>
<linearGradient id="paint11_linear_20_1467" x1="246.379" y1="265.201" x2="212.619" y2="256.244" gradientUnits="userSpaceOnUse">
<stop stop-color="#FFB7D4"/>
<stop offset="1" stop-color="#AD31D5"/>
</linearGradient>
<linearGradient id="paint12_linear_20_1467" x1="245.229" y1="228.335" x2="152.877" y2="215.185" gradientUnits="userSpaceOnUse">
<stop stop-color="#FFB7D4"/>
<stop offset="1" stop-color="#D54FE1"/>
</linearGradient>
<linearGradient id="paint13_linear_20_1467" x1="248.262" y1="231.302" x2="206.598" y2="252.517" gradientUnits="userSpaceOnUse">
<stop stop-color="#FFB7D4"/>
<stop offset="1" stop-color="#AD31D5"/>
</linearGradient>
<linearGradient id="paint14_linear_20_1467" x1="299.022" y1="183.398" x2="259.109" y2="188.075" gradientUnits="userSpaceOnUse">
<stop stop-color="#E55BE4"/>
<stop offset="0.2695" stop-color="#D44FDF"/>
<stop offset="0.5011" stop-color="#C949DD"/>
<stop offset="1" stop-color="#A328D6"/>
</linearGradient>
<linearGradient id="paint15_linear_20_1467" x1="286.093" y1="171.505" x2="253.14" y2="188.832" gradientUnits="userSpaceOnUse">
<stop stop-color="#FFB7D4"/>
<stop offset="1" stop-color="#D54FE1"/>
</linearGradient>
<linearGradient id="paint16_linear_20_1467" x1="215.516" y1="176.301" x2="152.517" y2="167.389" gradientUnits="userSpaceOnUse">
<stop stop-color="#FFB7D4"/>
<stop offset="1" stop-color="#AD31D5"/>
</linearGradient>
<linearGradient id="paint17_linear_20_1467" x1="202.29" y1="193.258" x2="146.996" y2="155.055" gradientUnits="userSpaceOnUse">
<stop stop-color="#FFB7D4"/>
<stop offset="1" stop-color="#D54FE1"/>
</linearGradient>
<linearGradient id="paint18_linear_20_1467" x1="211.331" y1="180.172" x2="156.037" y2="141.969" gradientUnits="userSpaceOnUse">
<stop stop-color="#FFB7D4"/>
<stop offset="1" stop-color="#D54FE1"/>
</linearGradient>
<linearGradient id="paint19_linear_20_1467" x1="220.369" y1="167.09" x2="165.076" y2="128.887" gradientUnits="userSpaceOnUse">
<stop stop-color="#FFB7D4"/>
<stop offset="1" stop-color="#D54FE1"/>
</linearGradient>
<linearGradient id="paint20_linear_20_1467" x1="229.411" y1="154.004" x2="174.117" y2="115.801" gradientUnits="userSpaceOnUse">
<stop stop-color="#FFB7D4"/>
<stop offset="1" stop-color="#D54FE1"/>
</linearGradient>
<radialGradient id="paint21_radial_20_1467" cx="0" cy="0" r="1" gradientUnits="userSpaceOnUse" gradientTransform="translate(346.012 248.153) scale(23.4426 13.2919)">
<stop offset="0.0989" stop-color="#AD31D5"/>
<stop offset="0.5152" stop-color="#AD31D5"/>
<stop offset="1" stop-color="#AD31D5" stop-opacity="0"/>
</radialGradient>
<linearGradient id="paint22_linear_20_1467" x1="347.725" y1="243.393" x2="347.725" y2="104.217" gradientUnits="userSpaceOnUse">
<stop offset="0.0073223" stop-color="#AD31D5"/>
<stop offset="0.1377" stop-color="#AD31D5"/>
<stop offset="1" stop-color="#AD31D5" stop-opacity="0"/>
</linearGradient>
<linearGradient id="paint23_linear_20_1467" x1="343.488" y1="248.986" x2="278.333" y2="287.331" gradientUnits="userSpaceOnUse">
<stop stop-color="#FFB7D4"/>
<stop offset="1" stop-color="#AD31D5"/>
</linearGradient>
<linearGradient id="paint24_linear_20_1467" x1="341.678" y1="236.549" x2="251.968" y2="282.035" gradientUnits="userSpaceOnUse">
<stop stop-color="#FF97CC"/>
<stop offset="1" stop-color="#D54FE1"/>
</linearGradient>
<radialGradient id="paint25_radial_20_1467" cx="0" cy="0" r="1" gradientUnits="userSpaceOnUse" gradientTransform="translate(255.607 300.409) scale(23.4426 13.2919)">
<stop offset="0.0989" stop-color="#AD31D5"/>
<stop offset="0.5152" stop-color="#AD31D5"/>
<stop offset="1" stop-color="#AD31D5" stop-opacity="0"/>
</radialGradient>
<linearGradient id="paint26_linear_20_1467" x1="257.32" y1="295.649" x2="257.32" y2="156.473" gradientUnits="userSpaceOnUse">
<stop offset="0.0073223" stop-color="#AD31D5"/>
<stop offset="0.1377" stop-color="#AD31D5"/>
<stop offset="1" stop-color="#AD31D5" stop-opacity="0"/>
</linearGradient>
<linearGradient id="paint27_linear_20_1467" x1="384.229" y1="370.297" x2="323.789" y2="262.35" gradientUnits="userSpaceOnUse">
<stop offset="0.0744" stop-color="#FFD0E5"/>
<stop offset="0.2171" stop-color="#FF97CC"/>
<stop offset="0.4445" stop-color="#E55BE4"/>
<stop offset="0.6062" stop-color="#FF97CC"/>
<stop offset="0.7032" stop-color="#FFD0E5"/>
<stop offset="0.8925" stop-color="#FFD0E5"/>
<stop offset="1" stop-color="#FF97CC"/>
</linearGradient>
</defs>
</svg>
