<svg width="40" height="40" viewBox="0 0 40 40" fill="none" xmlns="http://www.w3.org/2000/svg">
<circle cx="20" cy="20" r="20" fill="#2B9D6A" fill-opacity="0.1"/>
<path fill-rule="evenodd" clip-rule="evenodd" d="M19.3844 10.2123C19.5603 10.0747 19.7772 10 20.0004 10C20.2237 10 20.4406 10.0747 20.6164 10.2123L22.2764 11.5093L24.3614 11.2163C24.5823 11.1852 24.8071 11.2289 25.0003 11.3403C25.1934 11.4518 25.3438 11.6246 25.4274 11.8313L26.2164 13.7843L28.1695 14.5733C28.3763 14.6568 28.5493 14.8071 28.6609 15.0002C28.7726 15.1934 28.8164 15.4183 28.7854 15.6393L28.4914 17.7253L29.7885 19.3853C29.9255 19.561 29.9999 19.7774 29.9999 20.0003C29.9999 20.2231 29.9255 20.4395 29.7885 20.6153L28.4914 22.2753L28.7854 24.3613C28.8164 24.5822 28.7726 24.8071 28.6609 25.0003C28.5493 25.1935 28.3763 25.3437 28.1695 25.4273L26.2164 26.2163L25.4274 28.1693C25.3439 28.3761 25.1936 28.5491 25.0005 28.6608C24.8073 28.7724 24.5824 28.8162 24.3614 28.7853L22.2754 28.4913L20.6154 29.7883C20.4397 29.9253 20.2233 29.9997 20.0004 29.9997C19.7776 29.9997 19.5612 29.9253 19.3854 29.7883L17.7254 28.4913L15.6394 28.7853C15.4185 28.8162 15.1936 28.7724 15.0004 28.6608C14.8073 28.5491 14.657 28.3761 14.5734 28.1693L13.7844 26.2163L11.8314 25.4273C11.6248 25.3436 11.452 25.1932 11.3405 25.0001C11.2291 24.8069 11.1854 24.5821 11.2164 24.3613L11.5094 22.2753L10.2124 20.6153C10.0754 20.4395 10.001 20.2231 10.001 20.0003C10.001 19.7774 10.0754 19.561 10.2124 19.3853L11.5094 17.7253L11.2164 15.6393C11.1854 15.4184 11.2291 15.1936 11.3405 15.0004C11.452 14.8073 11.6248 14.6569 11.8314 14.5733L13.7844 13.7843L14.5734 11.8313C14.6571 11.6246 14.8075 11.4518 15.0006 11.3403C15.1938 11.2289 15.4186 11.1852 15.6394 11.2163L17.7254 11.5093L19.3844 10.2123ZM23.7074 18.7073C23.8896 18.5187 23.9904 18.266 23.9881 18.0039C23.9858 17.7417 23.8807 17.4908 23.6953 17.3054C23.5099 17.12 23.259 17.0149 22.9969 17.0126C22.7347 17.0103 22.4821 17.1111 22.2934 17.2933L19.0004 20.5863L17.7074 19.2933C17.5188 19.1111 17.2662 19.0103 17.004 19.0126C16.7419 19.0149 16.491 19.12 16.3056 19.3054C16.1202 19.4908 16.0151 19.7417 16.0128 20.0039C16.0105 20.266 16.1113 20.5187 16.2934 20.7073L18.2934 22.7073C18.481 22.8947 18.7353 23 19.0004 23C19.2656 23 19.5199 22.8947 19.7074 22.7073L23.7074 18.7073Z" fill="#2B9D6A"/>
</svg>
