<svg width="64" height="64" viewBox="0 0 64 64" fill="none" xmlns="http://www.w3.org/2000/svg">
<rect width="64" height="64" rx="32" fill="white" fill-opacity="0.1"/>
<rect x="8" y="8" width="48" height="48" rx="24" fill="white" fill-opacity="0.3"/>
<path d="M40.2161 38.859C39.7328 37.4204 37.8063 36.5199 36.4328 35.9164C35.8947 35.6807 34.405 35.2808 34.226 34.6033C34.1619 34.3592 34.1705 34.1291 34.2231 33.9085C34.1395 33.9249 34.0546 33.9334 33.9694 33.9337H33.0744C32.731 33.9333 32.4018 33.7967 32.159 33.5539C31.9163 33.3111 31.7797 32.9818 31.7794 32.6384C31.7794 31.9249 32.3602 31.3448 33.0744 31.3448H33.9694C34.2651 31.3448 34.5454 31.4449 34.7715 31.6235C35.0932 31.5811 35.4107 31.5115 35.7207 31.4156C36.1121 30.5956 36.4174 29.6149 36.4858 28.7708C36.7779 25.1593 34.5639 23.0464 31.3894 23.4116C29.0813 23.6773 27.7025 25.3984 27.5535 27.614C27.4028 29.8724 28.2401 31.5404 29.1296 32.764C29.5191 33.2989 29.9283 33.6428 29.8654 34.2875C29.7924 35.0497 28.9774 35.2621 28.3944 35.4964C27.7037 35.7738 26.9597 36.1947 26.6084 36.3894C25.398 37.0578 24.0696 37.8627 23.7711 38.9639C23.1099 41.4042 25.3428 42.1434 27.1863 42.4847C28.7684 42.7765 30.5523 42.7995 32.0196 42.7995C34.6738 42.7995 39.4464 42.6932 40.2161 40.6981C40.435 40.132 40.3412 39.2298 40.2161 38.859Z" fill="white"/>
<path d="M34.5358 32.2743C34.4745 32.1799 34.3907 32.1024 34.2919 32.0486C34.193 31.9948 34.0824 31.9666 33.9699 31.9664H33.0749C32.9849 31.9639 32.8953 31.9796 32.8114 32.0124C32.7275 32.0452 32.651 32.0945 32.5865 32.1573C32.5219 32.2202 32.4706 32.2953 32.4356 32.3783C32.4006 32.4613 32.3825 32.5504 32.3825 32.6405C32.3825 32.7306 32.4006 32.8198 32.4356 32.9027C32.4706 32.9857 32.5219 33.0609 32.5865 33.1237C32.651 33.1865 32.7275 33.2358 32.8114 33.2686C32.8953 33.3014 32.9849 33.3171 33.0749 33.3147H33.9699C34.093 33.3146 34.2137 33.2805 34.3187 33.2162C34.4237 33.1518 34.5088 33.0598 34.5648 32.9501C35.8126 32.852 36.8979 32.4708 37.6596 31.908C37.8346 32.0208 38.0415 32.0868 38.2647 32.0868H38.3208C38.4687 32.0869 38.6151 32.0577 38.7517 32.0011C38.8883 31.9445 39.0124 31.8615 39.1169 31.7569C39.2214 31.6523 39.3043 31.5281 39.3607 31.3915C39.4172 31.2548 39.4461 31.1084 39.446 30.9605V28.7122C39.446 28.4998 39.3858 28.2918 39.2722 28.1124C39.1587 27.9329 38.9966 27.7894 38.8047 27.6984C38.6396 24.0881 35.6508 21.2 32 21.2C28.3491 21.2 25.3599 24.0881 25.1955 27.6984C25.0034 27.7892 24.8411 27.9327 24.7275 28.1122C24.6139 28.2917 24.5536 28.4998 24.5537 28.7122V30.9605C24.5535 31.1083 24.5825 31.2547 24.6389 31.3913C24.6953 31.5279 24.778 31.652 24.8824 31.7566C24.9868 31.8612 25.1108 31.9442 25.2473 32.0009C25.3838 32.0575 25.5301 32.0867 25.6779 32.0868H25.7348C25.8826 32.0868 26.029 32.0576 26.1655 32.001C26.3021 31.9444 26.4261 31.8614 26.5306 31.7568C26.6351 31.6522 26.7179 31.528 26.7744 31.3914C26.8308 31.2548 26.8598 31.1083 26.8596 30.9605V28.7122C26.8595 28.5028 26.8008 28.2976 26.6902 28.1198C26.5796 27.942 26.4215 27.7987 26.2337 27.7061C26.3943 24.6641 28.9186 22.2394 32 22.2394C35.0801 22.2394 37.6056 24.6641 37.7655 27.7061C37.5779 27.7989 37.4199 27.9423 37.3095 28.12C37.199 28.2978 37.1404 28.5029 37.1403 28.7122V30.9605C37.1403 31.1098 37.1693 31.2488 37.2204 31.3786C36.5648 31.8478 35.6103 32.1821 34.5358 32.2743Z" fill="white"/>
</svg>
