<svg width="64" height="64" viewBox="0 0 64 64" fill="none" xmlns="http://www.w3.org/2000/svg">
<rect width="64" height="64" rx="32" fill="white" fill-opacity="0.1"/>
<rect x="8" y="8" width="48" height="48" rx="24" fill="white" fill-opacity="0.3"/>
<path d="M39.3237 29.6796C39.7591 24.4211 37.1282 20.4219 31.0772 20.4219C22.0814 20.4219 19.9925 31.7428 26.27 36.2335C26.4953 39.8277 24.9931 42.3721 24.825 43.5781L35.0795 43.5582C35.0795 41.4302 33.3667 39.8498 34.7682 39.2364C35.6127 38.8667 38.3659 40.2951 39.0433 39.4521C39.5373 37.3372 40.0086 37.6957 40.0086 36.9292C38.9517 36.1241 39.0122 36.0162 40.0754 35.6728L40.0851 34.022L41.3431 33.7846C40.9912 31.7058 39.3237 31.1568 39.3237 29.6796ZM32.2924 24.3023H32.7779L33.4281 23.3297C33.3655 23.2136 33.3328 23.0838 33.333 22.9519C33.333 22.5115 33.69 22.1546 34.1303 22.1546C34.5707 22.1546 34.9276 22.5115 34.9276 22.9519C34.9276 23.3922 34.5707 23.7492 34.1303 23.7492C34.1034 23.7492 34.0764 23.7478 34.0496 23.7451L33.3047 24.8594C33.2722 24.9179 33.2247 24.9667 33.167 25.0006C33.1094 25.0345 33.0437 25.0524 32.9768 25.0524H32.2924V24.3023ZM31.5424 24.3023V25.6412C29.8329 25.6412 28.4471 27.027 28.4471 28.7366C28.4471 30.4461 29.8329 31.832 31.5424 31.832V34.6893H30.5491V33.6925C29.903 33.5636 29.2887 33.3089 28.7409 32.943L28.0356 33.6482L26.6308 32.2434L27.336 31.5382C26.9701 30.9904 26.7155 30.376 26.5866 29.73H25.5897V27.7433H26.5866C26.7154 27.0972 26.9701 26.4828 27.336 25.935L26.6308 25.2298L28.0357 23.825L28.7408 24.5301C29.2886 24.1642 29.903 23.9096 30.5491 23.7807V22.784H31.5424V24.3023ZM34.1304 35.3187C33.69 35.3187 33.3331 34.9618 33.3331 34.5214C33.3331 34.3847 33.3675 34.256 33.4282 34.1435L32.778 33.1709H32.2925V32.4209H32.9769C33.0437 32.4209 33.1094 32.4388 33.1671 32.4727C33.2247 32.5066 33.2723 32.5553 33.3047 32.6138L34.0497 33.7281C34.0765 33.7254 34.1034 33.7241 34.1304 33.7241C34.5707 33.7241 34.9277 34.0811 34.9277 34.5214C34.9276 34.9618 34.5707 35.3187 34.1304 35.3187ZM35.6309 32.9314C35.1906 32.9314 34.8336 32.5745 34.8336 32.1341C34.8336 32.1305 34.8337 32.127 34.8338 32.1235L33.3654 31.3191H32.2925V30.5691H33.4585C33.5325 30.569 33.6048 30.5908 33.6662 30.6319L35.1927 31.4681C35.3227 31.3822 35.4751 31.3366 35.6309 31.3369C36.0713 31.3369 36.4282 31.6938 36.4282 32.1342C36.4282 32.5744 36.0712 32.9314 35.6309 32.9314ZM35.6309 29.5339C35.3262 29.5339 35.0614 29.3629 34.9272 29.1116H32.2924V28.3616H34.9272C35.0614 28.1104 35.3261 27.9393 35.6309 27.9393C36.0713 27.9393 36.4282 28.2963 36.4282 28.7366C36.4282 29.177 36.0712 29.5339 35.6309 29.5339ZM35.6309 26.1365C35.469 26.1365 35.3184 26.0882 35.1927 26.0052L33.6662 26.8415C33.6048 26.8825 33.5325 26.9043 33.4585 26.9042H32.2925V26.1542H33.3654L34.8338 25.3498C34.8337 25.3463 34.8336 25.3428 34.8336 25.3392C34.8336 24.8989 35.1906 24.5419 35.6309 24.5419C36.0713 24.5419 36.4282 24.8989 36.4282 25.3392C36.4282 25.7795 36.0712 26.1365 35.6309 26.1365Z" fill="white"/>
</svg>
