<svg width="423" height="408" viewBox="0 0 423 408" fill="none" xmlns="http://www.w3.org/2000/svg">
<path d="M279.756 180.538L119.738 274.021C119.178 274.347 118.511 274.438 117.884 274.274C117.257 274.109 116.721 273.703 116.393 273.144L13.4913 97.1604C13.1648 96.6006 13.0738 95.9342 13.2383 95.3074C13.4027 94.6806 13.8092 94.1446 14.3685 93.817L174.386 0.333929C174.946 0.00759727 175.613 -0.0833556 176.24 0.0810239C176.867 0.245403 177.403 0.651693 177.731 1.21076L280.633 177.194C280.959 177.754 281.05 178.42 280.886 179.047C280.722 179.674 280.315 180.21 279.756 180.538Z" fill="white"/>
<path d="M279.756 180.538L119.738 274.021C119.178 274.347 118.511 274.438 117.884 274.274C117.257 274.109 116.721 273.703 116.393 273.144L13.4913 97.1604C13.1648 96.6006 13.0738 95.9342 13.2383 95.3074C13.4027 94.6806 13.8092 94.1446 14.3685 93.817L174.386 0.333929C174.946 0.00759727 175.613 -0.0833556 176.24 0.0810239C176.867 0.245403 177.403 0.651693 177.731 1.21076L280.633 177.194C280.959 177.754 281.05 178.42 280.886 179.047C280.722 179.674 280.315 180.21 279.756 180.538ZM14.8621 94.661C14.5265 94.8576 14.2826 95.1792 14.1839 95.5553C14.0852 95.9313 14.1398 96.3312 14.3357 96.6671L117.238 272.651C117.434 272.986 117.756 273.23 118.132 273.328C118.508 273.427 118.908 273.372 119.244 273.177L279.262 179.694C279.598 179.497 279.842 179.175 279.94 178.799C280.039 178.423 279.984 178.023 279.789 177.687L176.887 1.70405C176.69 1.36859 176.368 1.1248 175.992 1.02617C175.616 0.927543 175.216 0.982125 174.88 1.17794L14.8621 94.661Z" fill="#3F3D56"/>
<path d="M117.722 112.186L78.0342 135.372C77.4742 135.698 76.8075 135.789 76.1804 135.625C75.5533 135.46 75.0171 135.054 74.6893 134.495L51.4933 94.8248C51.1668 94.265 51.0758 93.5986 51.2402 92.9718C51.4047 92.345 51.8112 91.809 52.3705 91.4814L92.0582 68.2956C92.6183 67.9693 93.285 67.8783 93.9121 68.0427C94.5391 68.2071 95.0754 68.6134 95.4031 69.1724L118.599 108.843C118.926 109.402 119.017 110.069 118.852 110.696C118.688 111.322 118.281 111.858 117.722 112.186ZM52.864 92.3254C52.5284 92.522 52.2845 92.8436 52.1858 93.2197C52.0872 93.5957 52.1418 93.9956 52.3377 94.3315L75.5338 134.002C75.7304 134.337 76.0522 134.581 76.4284 134.679C76.8047 134.778 77.2047 134.723 77.5407 134.528L117.228 111.342C117.564 111.145 117.808 110.824 117.907 110.448C118.005 110.072 117.951 109.672 117.755 109.336L94.5587 69.6657C94.3621 69.3303 94.0404 69.0865 93.6641 68.9879C93.2879 68.8892 92.8878 68.9438 92.5518 69.1396L52.864 92.3254Z" fill="#F2F2F2"/>
<path d="M109.16 123.699L69.4721 146.884C68.9681 147.178 68.368 147.26 67.8037 147.112C67.2393 146.964 66.7567 146.598 66.4617 146.095L43.2656 106.425C42.9718 105.921 42.8899 105.322 43.0379 104.757C43.1859 104.193 43.5517 103.711 44.0551 103.416L83.7429 80.2303C84.247 79.9366 84.847 79.8548 85.4113 80.0027C85.9757 80.1506 86.4583 80.5163 86.7533 81.0195L109.949 120.69C110.243 121.193 110.325 121.793 110.177 122.357C110.029 122.921 109.663 123.404 109.16 123.699Z" fill="#2B9D6A"/>
<path d="M204.953 93.7804L80.8233 166.298C80.3194 166.592 79.7192 166.674 79.1546 166.526C78.59 166.378 78.1074 166.012 77.8129 165.508C77.5184 165.005 77.4361 164.405 77.5842 163.841C77.7323 163.276 78.0985 162.794 78.6024 162.499L202.732 89.9822C202.982 89.8365 203.258 89.7412 203.544 89.702C203.83 89.6628 204.121 89.6803 204.401 89.7536C204.681 89.8269 204.943 89.9545 205.173 90.1291C205.403 90.3037 205.597 90.522 205.743 90.7714C205.889 91.0208 205.984 91.2964 206.023 91.5826C206.062 91.8688 206.045 92.1599 205.971 92.4393C205.898 92.7188 205.77 92.981 205.596 93.2111C205.421 93.4412 205.203 93.6347 204.953 93.7804Z" fill="#CCCCCC"/>
<path d="M182.626 124.376L88.4732 179.381C88.2237 179.526 87.9479 179.622 87.6616 179.661C87.3753 179.7 87.0841 179.683 86.8045 179.609C86.24 179.461 85.7573 179.095 85.4628 178.592C85.1683 178.088 85.086 177.488 85.2341 176.924C85.3822 176.359 85.7484 175.877 86.2523 175.582L180.405 120.578C180.655 120.432 180.931 120.337 181.217 120.298C181.503 120.258 181.794 120.276 182.074 120.349C182.354 120.423 182.616 120.55 182.846 120.725C183.076 120.899 183.27 121.118 183.416 121.367C183.561 121.616 183.657 121.892 183.696 122.178C183.735 122.465 183.718 122.756 183.644 123.035C183.571 123.314 183.443 123.577 183.269 123.807C183.094 124.037 182.876 124.23 182.626 124.376Z" fill="#CCCCCC"/>
<path d="M176.4 45.9171L121.512 77.9826C121.008 78.277 120.408 78.3592 119.844 78.2112C119.279 78.0632 118.796 77.6971 118.502 77.1934C118.207 76.6898 118.125 76.0898 118.273 75.5255C118.421 74.9612 118.787 74.4788 119.291 74.1844L174.179 42.1189C174.683 41.8246 175.283 41.7423 175.847 41.8903C176.127 41.9636 176.389 42.0912 176.62 42.2658C176.85 42.4404 177.043 42.6587 177.189 42.9081C177.335 43.1575 177.43 43.4331 177.469 43.7193C177.509 44.0055 177.491 44.2966 177.418 44.5761C177.345 44.8555 177.217 45.1177 177.042 45.3478C176.867 45.5779 176.649 45.7714 176.4 45.9171Z" fill="#CCCCCC"/>
<path d="M170.352 67.0021L129.163 91.0651C128.913 91.2109 128.637 91.3061 128.351 91.3453C128.065 91.3845 127.774 91.367 127.494 91.2937C127.214 91.2204 126.952 91.0928 126.722 90.9182C126.492 90.7436 126.298 90.5253 126.152 90.2759C126.006 90.0266 125.911 89.7509 125.872 89.4647C125.833 89.1785 125.85 88.8874 125.924 88.608C125.997 88.3286 126.125 88.0663 126.299 87.8362C126.474 87.6061 126.692 87.4127 126.942 87.2669L168.131 63.2039C168.635 62.9095 169.235 62.8273 169.8 62.9753C170.364 63.1233 170.847 63.4894 171.141 63.993C171.436 64.4967 171.518 65.0967 171.37 65.661C171.222 66.2253 170.856 66.7077 170.352 67.0021Z" fill="#CCCCCC"/>
<path d="M220.253 119.946L96.1231 192.464C95.6192 192.758 95.019 192.84 94.4544 192.692C93.8899 192.544 93.4072 192.178 93.1127 191.675C92.8182 191.171 92.7359 190.571 92.884 190.007C93.0321 189.442 93.3983 188.96 93.9022 188.665L218.032 116.148C218.536 115.854 219.136 115.772 219.701 115.92C220.265 116.068 220.748 116.434 221.042 116.937C221.337 117.441 221.419 118.041 221.271 118.605C221.123 119.17 220.757 119.652 220.253 119.946Z" fill="#CCCCCC"/>
<path d="M197.925 150.541L103.773 205.546C103.523 205.691 103.247 205.787 102.961 205.826C102.675 205.865 102.383 205.848 102.104 205.774C101.824 205.701 101.562 205.573 101.332 205.399C101.102 205.224 100.908 205.006 100.762 204.757C100.616 204.507 100.521 204.232 100.482 203.945C100.443 203.659 100.46 203.368 100.533 203.089C100.607 202.809 100.734 202.547 100.909 202.317C101.084 202.087 101.302 201.893 101.552 201.748L195.705 146.743C195.954 146.597 196.23 146.502 196.516 146.463C196.802 146.424 197.094 146.441 197.373 146.514C197.653 146.588 197.915 146.715 198.145 146.89C198.376 147.064 198.569 147.283 198.715 147.532C198.861 147.781 198.956 148.057 198.995 148.343C199.035 148.63 199.017 148.921 198.944 149.2C198.87 149.479 198.743 149.742 198.568 149.972C198.393 150.202 198.175 150.395 197.925 150.541Z" fill="#CCCCCC"/>
<path d="M235.553 146.111L111.423 218.629C111.173 218.774 110.898 218.87 110.611 218.909C110.325 218.948 110.034 218.931 109.754 218.857C109.475 218.784 109.212 218.656 108.982 218.482C108.752 218.307 108.558 218.089 108.413 217.84C108.267 217.59 108.171 217.314 108.132 217.028C108.093 216.742 108.11 216.451 108.184 216.172C108.257 215.892 108.385 215.63 108.559 215.4C108.734 215.17 108.953 214.976 109.202 214.83L233.332 142.313C233.581 142.168 233.857 142.072 234.144 142.033C234.43 141.994 234.721 142.011 235.001 142.085C235.28 142.158 235.543 142.286 235.773 142.46C236.003 142.635 236.196 142.853 236.342 143.102C236.488 143.352 236.583 143.627 236.623 143.914C236.662 144.2 236.644 144.491 236.571 144.77C236.498 145.05 236.37 145.312 236.195 145.542C236.021 145.772 235.802 145.966 235.553 146.111Z" fill="#CCCCCC"/>
<path d="M243.203 159.194L119.073 231.712C118.823 231.857 118.548 231.953 118.261 231.992C117.975 232.031 117.684 232.014 117.404 231.94C117.125 231.867 116.862 231.739 116.632 231.565C116.402 231.39 116.208 231.172 116.062 230.923C115.917 230.673 115.821 230.398 115.782 230.111C115.743 229.825 115.76 229.534 115.834 229.255C115.907 228.975 116.035 228.713 116.209 228.483C116.384 228.253 116.602 228.059 116.852 227.914L240.982 155.396C241.231 155.251 241.507 155.155 241.793 155.116C242.08 155.077 242.371 155.094 242.65 155.168C242.93 155.241 243.192 155.369 243.423 155.543C243.653 155.718 243.846 155.936 243.992 156.185C244.138 156.435 244.233 156.71 244.273 156.997C244.312 157.283 244.294 157.574 244.221 157.853C244.148 158.133 244.02 158.395 243.845 158.625C243.671 158.855 243.452 159.049 243.203 159.194Z" fill="#CCCCCC"/>
<path d="M203.061 210.123C204.786 208.093 206.338 205.923 207.702 203.635C208.925 201.571 210.125 199.365 210.395 196.944C210.533 195.913 210.426 194.865 210.082 193.883C209.738 192.902 209.167 192.016 208.415 191.296C207.689 190.627 206.769 190.206 205.788 190.095C204.806 189.983 203.815 190.187 202.957 190.676C202.089 191.174 201.372 191.898 200.881 192.77C200.391 193.642 200.146 194.631 200.171 195.631C200.242 196.732 200.56 197.803 201.102 198.764C201.645 199.725 202.397 200.552 203.304 201.182C206.973 203.839 212.703 203.7 216.613 201.678C221.018 199.4 223.294 193.442 219.833 189.363C219.114 188.515 217.916 189.463 218.096 190.378C218.325 191.614 219.017 192.716 220.031 193.459C221.046 194.202 222.306 194.53 223.554 194.376C224.802 194.222 225.944 193.597 226.747 192.63C227.55 191.662 227.953 190.425 227.874 189.17L226.318 190.079C228.225 190.923 230.321 191.251 232.395 191.028C234.469 190.806 236.448 190.041 238.133 188.812C238.966 188.207 239.71 187.488 240.344 186.676C241.105 185.683 242.384 185.041 243.42 184.326L250.884 179.171C251.982 178.413 250.938 176.606 249.831 177.37L243.071 182.039C241.945 182.817 240.811 183.585 239.691 184.373C238.891 184.937 238.399 185.846 237.67 186.515C236.291 187.754 234.588 188.577 232.76 188.886C230.931 189.195 229.052 188.978 227.342 188.261C227.183 188.175 227.004 188.132 226.823 188.135C226.643 188.139 226.466 188.188 226.309 188.279C226.153 188.371 226.023 188.5 225.932 188.656C225.84 188.812 225.79 188.989 225.787 189.17C225.869 189.918 225.652 190.669 225.183 191.259C224.714 191.848 224.031 192.229 223.283 192.318C222.535 192.406 221.782 192.196 221.188 191.732C220.595 191.268 220.208 190.589 220.113 189.842L218.376 190.856C220.608 193.488 219.122 197.523 216.55 199.289C213.674 201.264 209.424 201.606 206.182 200.379C205.387 200.105 204.656 199.671 204.037 199.103C203.417 198.534 202.921 197.844 202.58 197.076C202.264 196.382 202.174 195.606 202.322 194.858C202.471 194.109 202.85 193.427 203.408 192.905C203.89 192.429 204.54 192.158 205.218 192.151C205.897 192.144 206.552 192.4 207.044 192.867C207.581 193.414 207.975 194.086 208.191 194.822C208.407 195.557 208.439 196.335 208.284 197.086C207.95 199.175 206.794 201.102 205.719 202.887C204.491 204.921 203.103 206.854 201.567 208.666C200.706 209.684 202.191 211.152 203.061 210.123Z" fill="#2B9D6A"/>
<path d="M221.588 259.717C221.768 259.902 221.933 260.101 222.081 260.312L245.196 259.747L247.892 254.821L255.861 257.918L251.935 267.101C251.618 267.842 251.068 268.461 250.369 268.865C249.67 269.268 248.859 269.434 248.058 269.337L221.942 266.183C221.326 266.963 220.488 267.537 219.537 267.828C218.587 268.119 217.571 268.115 216.624 267.814C215.676 267.514 214.843 266.933 214.234 266.148C213.625 265.363 213.27 264.411 213.215 263.419C213.161 262.427 213.41 261.442 213.929 260.595C214.449 259.748 215.213 259.079 216.122 258.677C217.031 258.276 218.041 258.16 219.017 258.346C219.994 258.531 220.89 259.01 221.588 259.717Z" fill="#FFB7B7"/>
<path d="M296.938 400.032H289.338L285.722 370.729L296.939 370.73L296.938 400.032Z" fill="#FFB7B7"/>
<path d="M298.876 407.397L274.37 407.396V407.086C274.37 404.557 275.375 402.132 277.164 400.344C278.952 398.556 281.378 397.552 283.908 397.552H283.909L298.876 397.552L298.876 407.397Z" fill="#4F4D72"/>
<path d="M227.925 399.864L220.936 396.879L229.126 368.513L239.442 372.918L227.925 399.864Z" fill="#FFB7B7"/>
<path d="M226.814 407.396L204.278 397.773L204.4 397.488C205.393 395.163 207.271 393.327 209.618 392.386C211.966 391.444 214.592 391.473 216.918 392.466L216.919 392.466L230.683 398.344L226.814 407.396Z" fill="#4F4D72"/>
<path d="M259.996 266.065L259.446 274.967L275.512 276.685L292.321 278.483L287.373 264.966L259.996 266.065Z" fill="#FFB7B7"/>
<path d="M258.94 275.082L252.699 231.593L263.517 228.05L266.694 223.694L282.155 224.609L284.425 229.691L292.669 233.585L291.402 257.104L292.326 276.778L258.94 275.082Z" fill="#ADABCB"/>
<path d="M255.012 263.427L244.009 259.027L244.056 258.831C244.103 258.634 248.786 239.073 249.408 235.93C250.056 232.655 252.423 231.749 252.523 231.713L252.596 231.686L256.951 233.01L258.863 248.03L255.012 263.427Z" fill="#8A89A2"/>
<path d="M233.586 394.713L218.939 391.71L242.349 327.143L250.361 305.121C250.361 305.121 255.442 287.463 257.738 280.63L259.124 271.461L291.922 275.09C291.922 275.09 301.083 288.537 298.3 310.455L299.559 392.836L284.912 393.587L272.644 310.501L251.112 356.048C251.112 356.048 244.325 375.485 239.47 379.698L233.586 394.713Z" fill="#8A87B4"/>
<path d="M278.77 278.148C279.028 278.142 279.286 278.156 279.541 278.19L294.843 260.863L293.063 255.538L300.752 251.803L304.819 260.924C305.148 261.661 305.229 262.484 305.049 263.271C304.87 264.058 304.44 264.765 303.824 265.286L283.755 282.284C283.908 283.265 283.758 284.27 283.326 285.165C282.894 286.059 282.199 286.801 281.335 287.292C280.471 287.782 279.477 287.998 278.487 287.91C277.497 287.822 276.558 287.436 275.793 286.801C275.028 286.167 274.475 285.314 274.207 284.358C273.938 283.401 273.968 282.386 274.291 281.447C274.614 280.507 275.216 279.688 276.016 279.099C276.816 278.51 277.776 278.178 278.77 278.148Z" fill="#FFB7B7"/>
<path d="M293.621 262.549L287.238 247.542L289.727 237.089L292.41 233.702C292.606 233.618 292.818 233.575 293.031 233.577C293.245 233.579 293.456 233.625 293.651 233.713C294.64 234.111 295.483 235.331 296.155 237.338L302.137 254.369L293.621 262.549Z" fill="#8A89A2"/>
<path d="M260.505 218.133V206.819C260.505 202.798 262.103 198.942 264.948 196.099C267.792 193.256 271.65 191.658 275.673 191.658C279.696 191.658 283.554 193.256 286.398 196.099C289.243 198.942 290.841 202.798 290.841 206.819V218.133C290.84 218.673 290.625 219.191 290.243 219.572C289.861 219.954 289.343 220.169 288.803 220.17H262.543C262.003 220.169 261.485 219.954 261.103 219.572C260.721 219.191 260.506 218.673 260.505 218.133Z" fill="#2F2E41"/>
<path d="M272.556 219.907C278.697 219.907 283.676 214.93 283.676 208.791C283.676 202.652 278.697 197.676 272.556 197.676C266.414 197.676 261.436 202.652 261.436 208.791C261.436 214.93 266.414 219.907 272.556 219.907Z" fill="#FFB7B7"/>
<path d="M256.917 207.724C256.92 204.545 258.185 201.496 260.435 199.248C262.684 197 265.734 195.735 268.915 195.731H271.179C274.36 195.735 277.409 197 279.659 199.248C281.908 201.496 283.173 204.545 283.177 207.724V207.951H278.393L276.761 203.383L276.435 207.951H273.962L273.139 205.646L272.974 207.951H256.917L256.917 207.724Z" fill="#2F2E41"/>
<path d="M271.462 221.442C271.237 221.138 271.103 220.776 271.075 220.399C271.047 220.023 271.126 219.645 271.302 219.311C273.701 214.75 277.06 206.323 272.602 201.125L272.281 200.752H285.225V220.176L273.467 222.25C273.348 222.271 273.227 222.281 273.106 222.281C272.785 222.281 272.469 222.205 272.183 222.059C271.897 221.913 271.65 221.702 271.462 221.442Z" fill="#2F2E41"/>
<path d="M120.475 393.632L127.343 396.085L140.08 370.771L129.943 367.15L120.475 393.632Z" fill="#9F616A"/>
<path d="M116.343 399.662L119.524 390.765L133.051 395.597C135.335 396.416 137.202 398.107 138.24 400.3C139.279 402.493 139.405 405.008 138.591 407.293L138.49 407.573L116.343 399.662Z" fill="#2F2E41"/>
<path d="M165.139 400.422L172.433 400.421L175.904 372.3L165.138 372.3L165.139 400.422Z" fill="#9F616A"/>
<path d="M163.278 398.042L177.643 398.041H177.644C178.846 398.041 180.036 398.278 181.147 398.737C182.257 399.197 183.267 399.871 184.117 400.721C184.967 401.571 185.641 402.579 186.101 403.69C186.561 404.8 186.798 405.99 186.798 407.191V407.489L163.279 407.489L163.278 398.042Z" fill="#2F2E41"/>
<path d="M148.516 220.759L151.688 214.493C151.688 214.493 163.505 217.453 164.58 224.299L148.516 220.759Z" fill="#F1F1F1"/>
<path d="M135.427 292.398L144.053 340.517L121.147 381.008L134.831 386.361L158.035 347.111L161.01 336.406L162.794 392.308L175.136 391.933L180.794 339.735L171.719 291.209L135.427 292.398Z" fill="#8A87B4"/>
<path d="M151.803 303.774C139.13 303.774 131.083 301.351 130.903 301.312L130.611 301.25L137.212 270.659L137.51 242.441C137.51 230.483 145.383 221.667 146.476 220.853C146.66 220.128 147 219.451 147.473 218.87C147.946 218.289 148.54 217.818 149.213 217.491C151.84 216.3 155.049 217.729 155.184 217.79L164.817 221.4L164.862 221.534C164.978 221.876 177.666 263.51 177.666 263.51C177.666 263.51 176.898 299.887 176.631 301.079C176.631 301.079 158.845 303.774 151.803 303.774Z" fill="#ADABCB"/>
<path d="M161.541 212.521C168.731 212.521 174.56 206.694 174.56 199.507C174.56 192.32 168.731 186.493 161.541 186.493C154.351 186.493 148.521 192.32 148.521 199.507C148.521 206.694 154.351 212.521 161.541 212.521Z" fill="#9F616A"/>
<path opacity="0.2" d="M147.024 244.749L169.802 276.515L173.166 261.681L147.024 244.749Z" fill="black"/>
<path d="M218.436 266.362C217.795 266.869 217.052 267.229 216.257 267.417C215.462 267.605 214.635 267.617 213.836 267.451C213.036 267.285 212.282 266.946 211.628 266.458C210.973 265.969 210.434 265.343 210.047 264.624L190.442 267.761L194.689 258.362L212.656 256.824C213.908 256.256 215.325 256.166 216.639 256.572C217.953 256.978 219.072 257.851 219.784 259.027C220.497 260.203 220.753 261.599 220.505 262.951C220.256 264.303 219.52 265.517 218.436 266.362Z" fill="#9F616A"/>
<path d="M195.699 257.827L202.744 257.137L204.696 266.959L195.832 267.116L195.699 257.827Z" fill="#F1F1F1"/>
<path d="M202.149 269.952L167.648 266.881L150.228 239.189L150.174 238.944C149.679 236.682 150.026 234.317 151.148 232.291C152.27 230.266 154.091 228.717 156.272 227.935C158.452 227.154 160.843 227.192 162.998 228.043C165.152 228.894 166.923 230.5 167.98 232.56L178.206 252.499L198.844 255.617L202.149 269.952Z" fill="#ADABCB"/>
<path d="M150.451 210.805L161.258 211.193C161.916 211.216 163.704 204.111 163.938 202.637C164.123 201.677 164.651 200.817 165.424 200.219C166.196 199.62 167.161 199.322 168.136 199.382C168.945 199.458 170.985 197.948 173.09 196.159C177.086 192.763 176.878 186.385 172.489 183.516C172.369 183.437 172.251 183.366 172.135 183.301C169.366 181.752 166.126 181.232 162.953 181.192C160.076 181.156 157.118 181.518 154.584 182.879C150.04 185.319 147.622 190.651 147.41 195.802C147.198 200.953 148.85 205.99 150.724 210.792" fill="#2F2E41"/>
</svg>
