<svg width="64" height="64" viewBox="0 0 64 64" fill="none" xmlns="http://www.w3.org/2000/svg">
<rect width="64" height="64" rx="32" fill="white" fill-opacity="0.1"/>
<rect x="8" y="8" width="48" height="48" rx="24" fill="white" fill-opacity="0.3"/>
<g clip-path="url(#clip0_20_1767)">
<path fill-rule="evenodd" clip-rule="evenodd" d="M25.385 38.8175C25.2397 38.6693 25.1582 38.4699 25.1582 38.2623C25.1582 38.0547 25.2397 37.8553 25.385 37.7071L26.8109 36.2838C26.8833 36.2106 26.9697 36.1526 27.0648 36.1132C27.1599 36.0738 27.262 36.0539 27.365 36.0545C27.5204 36.0541 27.6724 36.0998 27.8018 36.1859C27.9312 36.272 28.032 36.3946 28.0916 36.5381C28.1513 36.6816 28.1669 36.8396 28.1366 36.992C28.1063 37.1445 28.0314 37.2844 27.9214 37.3942L26.4957 38.8175C26.3482 38.9643 26.1486 39.0468 25.9405 39.0468C25.7324 39.0468 25.5327 38.9643 25.3852 38.8175H25.385ZM27.0688 40.5011C27.2162 40.6479 27.4159 40.7303 27.624 40.7303C27.8321 40.7303 28.0317 40.6479 28.1792 40.5011L29.6025 39.0754C29.6757 39.003 29.7337 38.9167 29.7731 38.8215C29.8124 38.7264 29.8324 38.6244 29.8317 38.5214C29.8322 38.366 29.7865 38.2139 29.7004 38.0846C29.6143 37.9552 29.4917 37.8543 29.3482 37.7947C29.2046 37.735 29.0466 37.7194 28.8942 37.7497C28.7418 37.78 28.6018 37.8549 28.492 37.9649L27.0688 39.3906C26.9219 39.5381 26.8395 39.7377 26.8395 39.9459C26.8395 40.154 26.9219 40.3536 27.0688 40.5011ZM28.7523 42.1823C28.6055 42.0348 28.5231 41.8352 28.5231 41.6271C28.5231 41.4189 28.6055 41.2193 28.7523 41.0718L30.1756 39.6486C30.3232 39.5029 30.5224 39.4215 30.7298 39.4221C30.9372 39.4228 31.1358 39.5055 31.2825 39.6521C31.4291 39.7987 31.5118 39.9974 31.5125 40.2048C31.5131 40.4122 31.4317 40.6114 31.286 40.759C31.2717 40.7733 31.2598 40.7877 31.2478 40.802C31.2072 40.8354 31.1666 40.8713 31.126 40.9094L30.0132 42.0247C29.9748 42.063 29.9389 42.1037 29.9057 42.1466C29.8897 42.1564 29.8753 42.1685 29.8627 42.1824C29.7152 42.3292 29.5156 42.4116 29.3075 42.4116C29.0993 42.4116 28.8997 42.3292 28.7522 42.1824L28.7523 42.1823ZM30.5864 43.3405C30.6852 43.4384 30.8186 43.4933 30.9577 43.4933C31.0968 43.4933 31.2303 43.4384 31.329 43.3405L32.4443 42.2277C32.5431 42.1288 32.5986 41.9948 32.5986 41.855C32.5986 41.7152 32.5431 41.5812 32.4443 41.4823C32.3454 41.3835 32.2114 41.328 32.0716 41.328C31.9319 41.328 31.7978 41.3835 31.699 41.4823L30.5862 42.5976C30.5373 42.6463 30.4986 42.7042 30.4721 42.7679C30.4457 42.8316 30.4321 42.8999 30.4321 42.9689C30.4321 43.0379 30.4457 43.1062 30.4721 43.1699C30.4986 43.2336 30.5373 43.2915 30.5862 43.3402L30.5864 43.3405ZM32.824 43.7274C32.7258 43.825 32.5932 43.8802 32.4548 43.881C32.3163 43.8819 32.1831 43.8284 32.0837 43.7321L32.8264 42.9868C32.923 43.0859 32.9769 43.219 32.9765 43.3574C32.976 43.4959 32.9213 43.6286 32.824 43.7271V43.7274ZM34.6578 42.5691C34.5103 42.716 34.3107 42.7984 34.1026 42.7984C33.8945 42.7984 33.6949 42.716 33.5474 42.5691C33.5334 42.5552 33.5182 42.5424 33.502 42.5309C33.4686 42.4903 33.4351 42.4498 33.3969 42.4116L33.3181 42.3327C33.41 42.0916 33.4304 41.8292 33.3771 41.5768C33.3237 41.3244 33.1988 41.0927 33.0172 40.9094C32.8199 40.7114 32.5649 40.581 32.2889 40.5369C32.3342 40.3287 32.3367 40.1133 32.296 39.9041C32.4452 39.8217 32.6172 39.79 32.786 39.8137C32.9548 39.8373 33.1113 39.9151 33.2322 40.0354L34.6578 41.4587C34.8046 41.6062 34.8871 41.8058 34.8871 42.0139C34.8871 42.222 34.8046 42.4217 34.6578 42.5691ZM36.339 40.8855C36.4122 40.8128 36.4703 40.7263 36.51 40.631C36.5496 40.5357 36.57 40.4335 36.57 40.3303C36.57 40.2271 36.5496 40.1249 36.51 40.0297C36.4703 39.9344 36.4122 39.8479 36.339 39.7751L34.9156 38.3518C34.768 38.2062 34.5688 38.1248 34.3615 38.1254C34.1541 38.1261 33.9554 38.2088 33.8088 38.3554C33.6621 38.502 33.5795 38.7007 33.5788 38.9081C33.5781 39.1155 33.6595 39.3147 33.8052 39.4623L35.2285 40.8855C35.3015 40.9586 35.3882 41.0165 35.4837 41.0558C35.5792 41.0952 35.6816 41.1152 35.7849 41.1148C35.8878 41.1154 35.9899 41.0955 36.0851 41.0561C36.1802 41.0168 36.2665 40.9588 36.3389 40.8855H36.339ZM38.0226 39.2044C37.8751 39.3512 37.6755 39.4336 37.4674 39.4336C37.2592 39.4336 37.0596 39.3512 36.9121 39.2044L35.4889 37.7787C35.4159 37.7058 35.3581 37.6193 35.3186 37.524C35.2792 37.4288 35.2589 37.3267 35.2589 37.2236C35.259 37.1205 35.2793 37.0184 35.3189 36.9232C35.3584 36.828 35.4163 36.7415 35.4893 36.6687C35.5622 36.5959 35.6489 36.5382 35.7442 36.4988C35.8395 36.4595 35.9416 36.4394 36.0447 36.4395C36.1478 36.4397 36.2498 36.4602 36.345 36.4999C36.4401 36.5395 36.5266 36.5976 36.5993 36.6706L38.0227 38.0938C38.1695 38.2413 38.252 38.4409 38.252 38.649C38.252 38.8571 38.1695 39.0567 38.0227 39.2042L38.0226 39.2044ZM40.6614 29.2605L44 35.042L41.8484 36.2862L38.5099 30.5047L40.6614 29.2606L40.6614 29.2605ZM32.9146 31.073L30.1015 32.4605C30.0237 32.4959 29.955 32.5485 29.9004 32.6142C29.8458 32.68 29.8068 32.7572 29.7863 32.8402L29.2847 34.6168C29.2804 34.6306 29.2792 34.6453 29.2812 34.6597C29.2832 34.674 29.2884 34.6878 29.2964 34.6999C29.3044 34.712 29.315 34.7222 29.3274 34.7297C29.3399 34.7372 29.3538 34.7419 29.3683 34.7433L30.3259 34.8652C30.3452 34.8683 30.3649 34.8654 30.3824 34.8568C30.3999 34.8483 30.4144 34.8345 30.4238 34.8175L31.0543 33.7834C31.1885 33.5529 31.3862 33.3658 31.6236 33.2443C31.8611 33.1228 32.1285 33.072 32.394 33.0981L32.8692 33.1386C33.125 33.1572 33.3702 33.2482 33.5761 33.4011L36.8023 35.8227C36.9386 35.8954 37.0634 35.988 37.1727 36.0973L38.1969 37.1244L40.5993 35.7441L38.3473 31.842L37.7503 32.0689C37.3592 32.221 36.9268 32.2295 36.53 32.0927L33.3753 31.042C33.3006 31.0144 33.221 31.0029 33.1415 31.0082C33.0621 31.0136 32.9847 31.0356 32.9144 31.073H32.9146ZM28.6162 31.6294L25.7553 31.6629L23.1594 36.162L24.8167 37.1315L26.2376 35.7106C26.3852 35.5622 26.5609 35.4446 26.7544 35.3647C26.9479 35.2847 27.1554 35.244 27.3647 35.245C27.5819 35.2446 27.7968 35.2887 27.9962 35.3746C28.1957 35.4604 28.3754 35.5862 28.5244 35.7441C28.6734 35.9021 28.7885 36.0888 28.8626 36.293C28.9367 36.4971 28.9682 36.7142 28.9552 36.9309C29.1719 36.9179 29.389 36.9494 29.5932 37.0235C29.7973 37.0976 29.984 37.2127 30.142 37.3617C30.2999 37.5107 30.4257 37.6905 30.5116 37.8899C30.5974 38.0893 30.6415 38.3043 30.6411 38.5214C30.6411 38.5524 30.6411 38.5811 30.6388 38.6121C30.8633 38.5989 31.0881 38.6334 31.2985 38.7132C31.5088 38.7931 31.6998 38.9165 31.859 39.0754C31.8901 39.1064 31.9188 39.1399 31.9474 39.1733C32.2016 39.0427 32.486 38.9825 32.7713 38.999C32.7689 38.9679 32.7666 38.9393 32.7666 38.9083C32.7659 38.6909 32.8098 38.4757 32.8955 38.276C32.9812 38.0763 33.1069 37.8962 33.2649 37.747C33.4229 37.5977 33.6098 37.4824 33.8141 37.4082C34.0183 37.334 34.2356 37.3024 34.4526 37.3154C34.4502 37.2868 34.4502 37.2557 34.4502 37.2246C34.4495 36.9181 34.5376 36.618 34.7037 36.3603C34.8698 36.1027 35.1068 35.8986 35.3863 35.7727L33.089 34.0509C33.0042 33.9883 32.9029 33.9518 32.7977 33.9458L32.3248 33.9052C32.2099 33.8932 32.0939 33.915 31.9912 33.9681C31.8885 34.0211 31.8036 34.1031 31.7469 34.2038L31.1165 35.2378C31.0263 35.3887 30.8938 35.5098 30.7355 35.5862C30.5773 35.6626 30.4 35.6909 30.2258 35.6676L29.2681 35.5485C29.1379 35.5318 29.0129 35.4873 28.9015 35.4179C28.7901 35.3485 28.695 35.2559 28.6227 35.1464C28.5504 35.0369 28.5026 34.9131 28.4825 34.7834C28.4624 34.6538 28.4705 34.5213 28.5063 34.395L29.0054 32.6207C29.0573 32.4283 29.1502 32.2494 29.2775 32.0961C29.4048 31.9428 29.5637 31.8187 29.7433 31.7323L31.0328 31.0971L30.7844 30.9682C30.6985 30.9199 30.6018 30.8941 30.5032 30.8933C30.4047 30.8925 30.3075 30.9166 30.2208 30.9635L29.2226 31.4744C29.0361 31.5748 28.8278 31.6281 28.616 31.6296L28.6162 31.6294ZM23.3385 29.2605L20 35.042L22.1516 36.2862L25.4901 30.5047L23.3386 29.2606L23.3385 29.2605ZM32 29.6091C32.9385 29.6091 33.8559 29.3309 34.6362 28.8095C35.4165 28.2881 36.0247 27.547 36.3839 26.6799C36.743 25.8129 36.837 24.8588 36.6539 23.9384C36.4708 23.0179 36.0189 22.1724 35.3553 21.5088C34.6917 20.8452 33.8462 20.3933 32.9257 20.2102C32.0053 20.0271 31.0512 20.1211 30.1841 20.4802C29.3171 20.8394 28.576 21.4475 28.0546 22.2279C27.5332 23.0082 27.2549 23.9256 27.2549 24.8641C27.2561 26.1222 27.7564 27.3285 28.646 28.2181C29.5356 29.1077 30.7419 29.608 32 29.6091ZM30.1994 24.8832C30.1682 24.8402 30.1458 24.7915 30.1334 24.7399C30.121 24.6882 30.1189 24.6347 30.1272 24.5822C30.1355 24.5298 30.1541 24.4795 30.1818 24.4342C30.2096 24.389 30.246 24.3496 30.2889 24.3184C30.3319 24.2872 30.3806 24.2647 30.4322 24.2524C30.4839 24.24 30.5374 24.2379 30.5899 24.2462C30.6423 24.2545 30.6926 24.2731 30.7379 24.3008C30.7832 24.3286 30.8225 24.365 30.8537 24.4079L31.4725 25.2605L33.5382 23.5697C33.6214 23.5041 33.727 23.4738 33.8323 23.4852C33.9377 23.4967 34.0343 23.549 34.1015 23.6309C34.1687 23.7128 34.2011 23.8178 34.1917 23.9234C34.1823 24.0289 34.1319 24.1266 34.0513 24.1954L31.656 26.1583C31.583 26.2172 31.492 26.2493 31.3982 26.2491C31.3344 26.2505 31.2711 26.2362 31.2141 26.2075C31.157 26.1788 31.1079 26.1365 31.071 26.0843L30.1994 24.8832Z" fill="white"/>
</g>
<defs>
<clipPath id="clip0_20_1767">
<rect width="24" height="24" fill="white" transform="translate(20 20)"/>
</clipPath>
</defs>
</svg>
